<svg width="168" height="56" viewBox="0 0 168 56" fill="none" xmlns="http://www.w3.org/2000/svg">
<rect x="0.5" y="0.5" width="167" height="55" rx="6.5" fill="#202020"/>
<rect x="0.5" y="0.5" width="167" height="55" rx="6.5" stroke="#8F8F99"/>
<path d="M114.135 26.8815V30.0889H112.125V32.1923H114.135V39.3393C114.135 41.7797 115.239 42.7559 118.017 42.7559C118.505 42.7559 118.97 42.6978 119.376 42.6281V40.5479C119.028 40.5828 118.807 40.606 118.424 40.606C117.18 40.606 116.634 40.025 116.634 38.7001V32.1923H119.376V30.0889H116.634V26.8815H114.135Z" fill="white"/>
<path d="M126.452 42.9302C130.147 42.9302 132.413 40.4549 132.413 36.3527C132.413 32.2737 130.136 29.7868 126.452 29.7868C122.756 29.7868 120.479 32.2737 120.479 36.3527C120.479 40.4549 122.745 42.9302 126.452 42.9302ZM126.452 40.7106C124.279 40.7106 123.059 39.1185 123.059 36.3527C123.059 33.6101 124.279 32.0064 126.452 32.0064C128.613 32.0064 129.845 33.6101 129.845 36.3527C129.845 39.1069 128.613 40.7106 126.452 40.7106Z" fill="white"/>
<path d="M134.352 42.6862H136.851V35.2138C136.851 33.4358 138.187 32.2388 140.082 32.2388C140.523 32.2388 141.267 32.3202 141.476 32.3899V29.9262C141.209 29.8565 140.732 29.8216 140.36 29.8216C138.71 29.8216 137.304 30.7281 136.944 31.9715H136.758V30.0308H134.352V42.6862Z" fill="white"/>
<path d="M147.68 31.9134C149.528 31.9134 150.736 33.2034 150.794 35.1906H144.403C144.542 33.215 145.832 31.9134 147.68 31.9134ZM150.783 39.2696C150.318 40.2574 149.284 40.8036 147.773 40.8036C145.774 40.8036 144.484 39.3974 144.403 37.1778V37.0383H153.339V36.1668C153.339 32.1923 151.213 29.7868 147.692 29.7868C144.124 29.7868 141.858 32.355 141.858 36.3992C141.858 40.4433 144.077 42.9302 147.703 42.9302C150.597 42.9302 152.619 41.5357 153.188 39.2696H150.783Z" fill="white"/>
<path d="M97.7504 38.0128C97.9431 41.1203 100.533 43.1078 104.387 43.1078C108.506 43.1078 111.084 41.024 111.084 37.6996C111.084 35.0858 109.615 33.6404 106.049 32.8093L104.134 32.3396C101.87 31.8096 100.954 31.099 100.954 29.8583C100.954 28.2925 102.376 27.2687 104.508 27.2687C106.531 27.2687 107.928 28.2684 108.181 29.8704H110.807C110.65 26.9435 108.073 24.8838 104.544 24.8838C100.75 24.8838 98.2201 26.9435 98.2201 30.039C98.2201 32.5925 99.6535 34.1102 102.797 34.8449L105.038 35.387C107.338 35.929 108.35 36.7239 108.35 38.0489C108.35 39.5906 106.76 40.7108 104.592 40.7108C102.267 40.7108 100.653 39.6629 100.424 38.0128H97.7504Z" fill="white"/>
<path d="M71.8681 29.8216C70.1482 29.8216 68.6607 30.6816 67.8937 32.1226H67.7077V30.0308H65.3022V46.893H67.8007V40.7687H67.9983C68.6607 42.1051 70.0901 42.8954 71.8913 42.8954C75.0871 42.8954 77.1208 40.3736 77.1208 36.3527C77.1208 32.3318 75.0871 29.8216 71.8681 29.8216ZM71.1592 40.6525C69.0674 40.6525 67.7542 39.0023 67.7542 36.3643C67.7542 33.7147 69.0674 32.0645 71.1708 32.0645C73.2859 32.0645 74.5526 33.6798 74.5526 36.3527C74.5526 39.0372 73.2859 40.6525 71.1592 40.6525Z" fill="white"/>
<path d="M85.8636 29.8216C84.1437 29.8216 82.6562 30.6816 81.8892 32.1226H81.7032V30.0308H79.2977V46.893H81.7962V40.7687H81.9938C82.6562 42.1051 84.0856 42.8954 85.8868 42.8954C89.0826 42.8954 91.1163 40.3736 91.1163 36.3527C91.1163 32.3318 89.0826 29.8216 85.8636 29.8216ZM85.1547 40.6525C83.0629 40.6525 81.7497 39.0023 81.7497 36.3643C81.7497 33.7147 83.0629 32.0645 85.1663 32.0645C87.2814 32.0645 88.5481 33.6798 88.5481 36.3527C88.5481 39.0372 87.2814 40.6525 85.1547 40.6525Z" fill="white"/>
<path d="M60.8194 42.6862H63.6861L57.4107 25.3054H54.5078L48.2324 42.6862H51.0028L52.6047 38.073H59.2294L60.8194 42.6862ZM55.8207 28.4611H56.0255L58.5429 35.8085H53.2913L55.8207 28.4611Z" fill="white"/>
<path d="M49.9121 12.1958V20.5804H52.9394C55.4379 20.5804 56.8848 19.0406 56.8848 16.3619C56.8848 13.7239 55.4263 12.1958 52.9394 12.1958H49.9121ZM51.2137 13.3811H52.7941C54.5315 13.3811 55.56 14.4851 55.56 16.3793C55.56 18.3026 54.5489 19.395 52.7941 19.395H51.2137V13.3811Z" fill="white"/>
<path d="M61.3159 20.7024C63.1636 20.7024 64.2967 19.4647 64.2967 17.4136C64.2967 15.3741 63.1578 14.1307 61.3159 14.1307C59.4681 14.1307 58.3293 15.3741 58.3293 17.4136C58.3293 19.4647 59.4623 20.7024 61.3159 20.7024ZM61.3159 19.5926C60.2293 19.5926 59.6192 18.7965 59.6192 17.4136C59.6192 16.0423 60.2293 15.2405 61.3159 15.2405C62.3967 15.2405 63.0126 16.0423 63.0126 17.4136C63.0126 18.7907 62.3967 19.5926 61.3159 19.5926Z" fill="white"/>
<path d="M73.9457 14.2527H72.6964L71.5692 19.0812H71.4704L70.1688 14.2527H68.9719L67.6703 19.0812H67.5773L66.4443 14.2527H65.1776L66.9207 20.5804H68.2049L69.5064 15.9203H69.6052L70.9126 20.5804H72.2083L73.9457 14.2527Z" fill="white"/>
<path d="M75.3844 20.5804H76.6336V16.8791C76.6336 15.8913 77.2205 15.2753 78.1444 15.2753C79.0683 15.2753 79.5099 15.7809 79.5099 16.7977V20.5804H80.7591V16.4839C80.7591 14.979 79.9805 14.1307 78.5686 14.1307C77.6156 14.1307 76.9881 14.5548 76.6801 15.2579H76.5872V14.2527H75.3844V20.5804Z" fill="white"/>
<path d="M82.7266 20.5804H83.9759V11.7832H82.7266V20.5804Z" fill="white"/>
<path d="M88.6743 20.7024C90.522 20.7024 91.6551 19.4647 91.6551 17.4136C91.6551 15.3741 90.5162 14.1307 88.6743 14.1307C86.8265 14.1307 85.6876 15.3741 85.6876 17.4136C85.6876 19.4647 86.8207 20.7024 88.6743 20.7024ZM88.6743 19.5926C87.5877 19.5926 86.9776 18.7965 86.9776 17.4136C86.9776 16.0423 87.5877 15.2405 88.6743 15.2405C89.755 15.2405 90.3709 16.0423 90.3709 17.4136C90.3709 18.7907 89.755 19.5926 88.6743 19.5926Z" fill="white"/>
<path d="M95.3773 19.6333C94.6975 19.6333 94.2036 19.3021 94.2036 18.7326C94.2036 18.1748 94.5987 17.8785 95.4703 17.8204L97.0159 17.7216V18.2503C97.0159 19.0348 96.3186 19.6333 95.3773 19.6333ZM95.0577 20.685C95.8886 20.685 96.5801 20.3247 96.9578 19.6914H97.0566V20.5804H98.2593V16.2573C98.2593 14.9209 97.3645 14.1307 95.7782 14.1307C94.343 14.1307 93.3204 14.8279 93.1925 15.9145H94.4011C94.5406 15.4671 95.0229 15.2114 95.7201 15.2114C96.5743 15.2114 97.0159 15.5891 97.0159 16.2573V16.8035L95.3018 16.9023C93.7968 16.9953 92.9485 17.6519 92.9485 18.7907C92.9485 19.947 93.8375 20.685 95.0577 20.685Z" fill="white"/>
<path d="M102.499 20.685C103.37 20.685 104.108 20.2724 104.486 19.581H104.585V20.5804H105.782V11.7832H104.532V15.2579H104.439C104.097 14.5606 103.364 14.1481 102.499 14.1481C100.901 14.1481 99.8723 15.4148 99.8723 17.4136C99.8723 19.4183 100.889 20.685 102.499 20.685ZM102.853 15.2695C103.899 15.2695 104.556 16.1004 104.556 17.4194C104.556 18.7442 103.905 19.5635 102.853 19.5635C101.796 19.5635 101.162 18.7559 101.162 17.4136C101.162 16.083 101.801 15.2695 102.853 15.2695Z" fill="white"/>
<path d="M113.883 20.7024C115.73 20.7024 116.864 19.4647 116.864 17.4136C116.864 15.3741 115.725 14.1307 113.883 14.1307C112.035 14.1307 110.896 15.3741 110.896 17.4136C110.896 19.4647 112.029 20.7024 113.883 20.7024ZM113.883 19.5926C112.796 19.5926 112.186 18.7965 112.186 17.4136C112.186 16.0423 112.796 15.2405 113.883 15.2405C114.964 15.2405 115.579 16.0423 115.579 17.4136C115.579 18.7907 114.964 19.5926 113.883 19.5926Z" fill="white"/>
<path d="M118.517 20.5804H119.767V16.8791C119.767 15.8913 120.353 15.2753 121.277 15.2753C122.201 15.2753 122.643 15.7809 122.643 16.7977V20.5804H123.892V16.4839C123.892 14.979 123.113 14.1307 121.701 14.1307C120.748 14.1307 120.121 14.5548 119.813 15.2579H119.72V14.2527H118.517V20.5804Z" fill="white"/>
<path d="M129.646 12.678V14.2817H128.64V15.3334H129.646V18.9069C129.646 20.1271 130.198 20.6152 131.586 20.6152C131.83 20.6152 132.063 20.5862 132.266 20.5513V19.5112C132.092 19.5287 131.981 19.5403 131.79 19.5403C131.168 19.5403 130.895 19.2498 130.895 18.5874V15.3334H132.266V14.2817H130.895V12.678H129.646Z" fill="white"/>
<path d="M133.943 20.5804H135.192V16.8849C135.192 15.9261 135.762 15.2812 136.784 15.2812C137.668 15.2812 138.138 15.7925 138.138 16.8035V20.5804H139.388V16.4956C139.388 14.9906 138.557 14.1365 137.209 14.1365C136.256 14.1365 135.587 14.5606 135.279 15.2695H135.181V11.7832H133.943V20.5804Z" fill="white"/>
<path d="M143.894 15.194C144.818 15.194 145.422 15.839 145.451 16.8326H142.256C142.325 15.8448 142.97 15.194 143.894 15.194ZM145.446 18.8721C145.213 19.366 144.696 19.6391 143.941 19.6391C142.941 19.6391 142.296 18.936 142.256 17.8262V17.7564H146.724V17.3207C146.724 15.3334 145.661 14.1307 143.9 14.1307C142.116 14.1307 140.983 15.4148 140.983 17.4369C140.983 19.4589 142.093 20.7024 143.906 20.7024C145.353 20.7024 146.364 20.0051 146.648 18.8721H145.446Z" fill="white"/>
<path d="M34.6772 28.4215C34.7075 26.0681 35.9714 23.8413 37.9764 22.6086C36.7115 20.8022 34.5929 19.6568 32.3887 19.5879C30.0378 19.3411 27.7587 20.9946 26.5607 20.9946C25.3395 20.9946 23.495 19.6124 21.5088 19.6532C18.9198 19.7369 16.5063 21.2088 15.2467 23.4722C12.5391 28.16 14.5587 35.0495 17.1524 38.8387C18.45 40.6942 19.9666 42.7669 21.951 42.6934C23.8929 42.6128 24.6182 41.4551 26.9622 41.4551C29.2845 41.4551 29.9649 42.6934 31.9896 42.6466C34.0733 42.6128 35.3862 40.7829 36.6383 38.9098C37.5707 37.5877 38.2881 36.1265 38.7641 34.5803C36.3153 33.5446 34.68 31.0803 34.6772 28.4215Z" fill="white"/>
<path d="M30.8528 17.0959C31.989 15.732 32.5487 13.9789 32.4132 12.209C30.6774 12.3913 29.074 13.2209 27.9226 14.5324C26.7966 15.8139 26.2106 17.5361 26.3214 19.2384C28.0578 19.2563 29.7648 18.4492 30.8528 17.0959Z" fill="white"/>
</svg>
