<svg width="33" height="32" viewBox="0 0 33 32" fill="none" xmlns="http://www.w3.org/2000/svg">
<g clip-path="url(#clip0_5_6241)">
<path d="M10.7186 20.6877H10.7201C10.7213 20.6877 10.7225 20.6875 10.7237 20.6875H27.7211C28.1395 20.6875 28.5074 20.4099 28.6224 20.0076L32.3724 6.88257C32.4532 6.59961 32.3966 6.29541 32.2196 6.06055C32.0423 5.82569 31.7652 5.68751 31.4711 5.68751H8.55651L7.88635 2.67164C7.79089 2.24268 7.41052 1.93751 6.97107 1.93751H1.34607C0.828247 1.93751 0.408569 2.35719 0.408569 2.87501C0.408569 3.39283 0.828247 3.81251 1.34607 3.81251H6.21911C6.33777 4.34693 9.42614 18.2449 9.60388 19.0444C8.60754 19.4775 7.90857 20.4709 7.90857 21.625C7.90857 23.1758 9.17028 24.4375 10.7211 24.4375H27.7211C28.2389 24.4375 28.6586 24.0178 28.6586 23.5C28.6586 22.9822 28.2389 22.5625 27.7211 22.5625H10.7211C10.2042 22.5625 9.78356 22.1418 9.78356 21.625C9.78356 21.1089 10.2028 20.689 10.7186 20.6877ZM30.2281 7.5625L27.0138 18.8125H11.473L8.97302 7.5625H30.2281Z" fill="white"/>
<path d="M9.78357 27.25C9.78357 28.8008 11.0453 30.0625 12.5961 30.0625C14.1468 30.0625 15.4086 28.8008 15.4086 27.25C15.4086 25.6992 14.1468 24.4375 12.5961 24.4375C11.0453 24.4375 9.78357 25.6992 9.78357 27.25ZM12.5961 26.3125C13.1129 26.3125 13.5336 26.7332 13.5336 27.25C13.5336 27.7668 13.1129 28.1875 12.5961 28.1875C12.0792 28.1875 11.6586 27.7668 11.6586 27.25C11.6586 26.7332 12.0792 26.3125 12.5961 26.3125Z" fill="white"/>
<path d="M23.0336 27.25C23.0336 28.8008 24.2953 30.0625 25.8461 30.0625C27.3968 30.0625 28.6586 28.8008 28.6586 27.25C28.6586 25.6992 27.3968 24.4375 25.8461 24.4375C24.2953 24.4375 23.0336 25.6992 23.0336 27.25ZM25.8461 26.3125C26.3629 26.3125 26.7836 26.7332 26.7836 27.25C26.7836 27.7668 26.3629 28.1875 25.8461 28.1875C25.3292 28.1875 24.9086 27.7668 24.9086 27.25C24.9086 26.7332 25.3292 26.3125 25.8461 26.3125Z" fill="white"/>
</g>
<defs>
<clipPath id="clip0_5_6241">
<rect width="32" height="32" fill="white" transform="translate(0.408569)"/>
</clipPath>
</defs>
</svg>
