<svg width="1320" height="178" viewBox="0 0 1320 178" fill="none" xmlns="http://www.w3.org/2000/svg">
<path d="M977.338 249.843C1006.01 250.407 1029.72 227.838 1030.29 199.434C1030.86 171.029 1008.08 147.544 979.402 146.979C950.725 146.415 927.016 168.984 926.446 197.389C925.876 225.794 948.661 249.278 977.338 249.843Z" fill="#B1EAFF"/>
<mask id="mask0_1_7645" style="mask-type:alpha" maskUnits="userSpaceOnUse" x="926" y="146" width="105" height="104">
<path d="M977.338 249.843C1006.01 250.407 1029.72 227.838 1030.29 199.434C1030.86 171.029 1008.08 147.544 979.402 146.979C950.725 146.415 927.016 168.984 926.446 197.389C925.876 225.794 948.661 249.278 977.338 249.843Z" fill="#D9D9D9"/>
</mask>
<g mask="url(#mask0_1_7645)">
<g filter="url(#filter0_f_1_7645)">
<path d="M711.643 703.155L424.346 531.228C427.495 528.489 431.075 526.221 434.98 524.526L484.555 502.969C485.651 502.459 486.772 501.909 487.852 501.335L530.11 478.339C539.864 473.022 547 464.084 549.981 453.491L561.308 412.93C561.414 412.568 561.509 412.198 561.599 411.827C561.685 411.472 561.767 411.113 561.848 410.756L570.528 371.496C573.266 359.093 581.665 348.636 593.297 343.276L631.087 325.766C635.942 323.51 640.331 320.364 643.963 316.433L671.074 287.26C676.234 281.745 679.708 274.945 681.183 267.559L688.998 228.336C690.356 221.601 689.986 214.664 687.901 208.144L680.952 186.226C672.662 160.065 692.184 133.398 719.886 133.16L729.414 133.091C753.651 132.831 772.482 112.079 770.043 88.1974L768.972 77.6227C767.82 66.4443 771.428 55.2843 778.851 46.7952L802.326 19.996C804.86 17.1286 806.968 13.95 808.581 10.476L830.032 -35.1823C830.661 -36.5816 831.249 -38.0057 831.755 -39.4792L844.326 -76.7436C847.974 -87.602 856.114 -96.4387 866.699 -101.093L895.369 -113.683C907.718 -119.113 916.621 -130.213 919.138 -143.358L923.048 -163.662C925.465 -176.09 933.51 -186.703 944.912 -192.423L978.806 -209.435C985.022 -212.541 990.303 -217.151 994.203 -222.808L1009.29 -244.692C1014.84 -252.706 1017.22 -262.286 1016.27 -271.725L1224.69 -147.005L1222.11 -141.252L1207.05 -109.196C1200.95 -96.2526 1188.41 -87.3835 1174.07 -85.865L1158.47 -84.2123C1130.55 -81.2203 1113.77 -52.139 1125.31 -26.8051L1129.12 -18.4202C1137.99 0.986511 1130.23 23.9244 1111.36 34.1633L1086.63 47.5585C1086.2 47.7931 1085.76 48.0183 1085.31 48.2398C1085.05 48.3695 1084.78 48.4982 1084.52 48.6266L1051.32 64.2226C1034.31 72.2433 1024.95 90.6195 1028.59 108.947L1030.18 116.834C1034.42 138.302 1020.81 159.237 999.332 164.364C976.401 169.844 962.752 193.143 969.403 215.549L971.471 222.557C977.353 242.45 967.241 263.537 948.002 271.615L935.72 276.751C923.059 282.05 913.933 293.239 911.333 306.612L905.591 336.086C904.307 342.699 901.419 348.906 897.1 354.147L866.313 391.554L838.625 428.208C833.685 434.742 830.818 442.571 830.444 450.728L829.129 478.467C828.376 494.333 818.444 508.313 803.616 514.313L772.821 526.797C764.941 529.962 758.25 535.504 753.696 542.601L734.753 572.001C731.109 577.7 728.911 584.156 728.418 590.853L724.443 642.918C724.316 644.784 724.04 646.617 723.656 648.441L712.129 701.201C711.984 701.856 711.822 702.506 711.643 703.155Z" fill="#D2CEFF"/>
</g>
</g>
<path d="M1074.04 238.036C1114.72 238.837 1148.35 206.824 1149.16 166.533C1149.97 126.241 1117.65 92.9295 1076.97 92.1285C1036.29 91.3275 1002.66 123.341 1001.85 163.632C1001.04 203.923 1033.36 237.235 1074.04 238.036Z" fill="#B1EAFF"/>
<mask id="mask1_1_7645" style="mask-type:alpha" maskUnits="userSpaceOnUse" x="1001" y="92" width="149" height="147">
<path d="M1074.04 238.036C1114.72 238.837 1148.35 206.824 1149.16 166.533C1149.97 126.241 1117.65 92.9295 1076.97 92.1285C1036.29 91.3275 1002.66 123.341 1001.85 163.632C1001.04 203.923 1033.36 237.235 1074.04 238.036Z" fill="#D9D9D9"/>
</mask>
<g mask="url(#mask1_1_7645)">
<g filter="url(#filter1_f_1_7645)">
<path d="M1552.32 1366.32L816.231 1291.3C819.907 1282.9 824.891 1275.04 831.066 1268.01L909.427 1178.8C911.13 1176.77 912.842 1174.63 914.45 1172.47L976.857 1087.22C991.253 1067.52 996.989 1043.04 992.872 1019.14L976.927 927.689C976.795 926.865 976.635 926.041 976.461 925.217C976.295 924.43 976.117 923.637 975.939 922.851L955.955 836.462C949.633 809.177 956.446 780.488 974.546 758.959L1033.25 688.805C1040.79 679.777 1046.55 669.412 1050.06 658.188L1076.4 574.733C1081.45 558.925 1081.92 542.125 1077.84 526.019L1056.17 440.514C1052.48 425.817 1045.15 412.328 1034.8 401.269L1000.13 364.038C958.756 319.595 972.346 248.214 1027.35 221.912L1046.28 212.889C1094.35 189.778 1112.19 130.834 1084.64 85.4836L1072.46 65.3931C1059.55 44.1745 1056.14 18.5544 1062.88 -5.29541L1084.22 -80.6254C1086.55 -88.7065 1087.73 -97.0101 1087.65 -105.443L1087.05 -216.496C1086.98 -219.873 1086.8 -223.261 1086.4 -226.671L1076.07 -312.704C1073.03 -337.761 1080.87 -362.974 1097.55 -382.124L1142.75 -433.961C1162.21 -456.303 1169.42 -486.738 1161.95 -515.3L1150.46 -559.436C1143.48 -586.473 1149.43 -615.143 1166.73 -637.177L1218.15 -702.704C1227.59 -714.692 1233.74 -728.809 1236.15 -743.726L1245.44 -801.436C1248.88 -822.59 1244.53 -843.912 1233.69 -861.856L1767.66 -807.436L1767.99 -793.563L1768.41 -715.598C1768.55 -684.098 1751.98 -654.722 1724.83 -638.326L1695.29 -620.481C1642.46 -588.482 1636.62 -514.838 1683.7 -475.079L1699.26 -461.909C1735.38 -431.48 1741.7 -378.5 1713.8 -340.486L1677.22 -290.719C1676.59 -289.852 1675.92 -288.991 1675.24 -288.13C1674.84 -287.627 1674.43 -287.123 1674.03 -286.62L1622.65 -224.567C1596.35 -192.708 1595.15 -147.338 1619.81 -114.181L1630.46 -99.9315C1659.33 -61.0813 1652.08 -6.64014 1614.12 23.6102C1573.6 55.9173 1568.52 115.107 1603.07 153.588L1613.85 165.638C1644.47 199.824 1644.34 251.305 1613.65 285.351L1594.05 307.046C1573.84 329.417 1566.27 360.238 1573.79 389.331L1590.33 453.463C1594.06 467.848 1594.19 482.92 1590.56 497.398L1564.71 600.7L1544.32 699.613C1540.68 717.245 1542.4 735.533 1549.41 752.148L1573.13 808.69C1586.7 841.033 1580.18 878.177 1556.31 903.963L1506.77 957.572C1494.07 971.233 1485.99 988.522 1483.66 1006.92L1473.81 1083.21C1471.96 1097.97 1473.71 1112.9 1479.09 1126.71L1520.62 1234.25C1522.14 1238.09 1523.33 1242 1524.3 1246L1551.43 1361.96C1551.76 1363.41 1552.06 1364.85 1552.32 1366.32Z" fill="#D2CEFF"/>
</g>
</g>
<path d="M1313.96 205.603C1359.18 162.858 1360.86 91.8952 1317.7 47.1034C1274.55 2.31157 1202.91 0.652497 1157.69 43.3978C1112.46 86.143 1110.79 157.106 1153.94 201.898C1197.1 246.69 1268.74 248.349 1313.96 205.603Z" fill="#D2CEFF"/>
<mask id="mask2_1_7645" style="mask-type:alpha" maskUnits="userSpaceOnUse" x="1122" y="12" width="228" height="225">
<path d="M1313.96 205.603C1359.18 162.858 1360.86 91.8947 1317.7 47.1029C1274.55 2.31108 1202.91 0.652009 1157.69 43.3973C1112.46 86.1425 1110.79 157.105 1153.94 201.897C1197.1 246.689 1268.74 248.348 1313.96 205.603Z" fill="#D9D9D9"/>
</mask>
<g mask="url(#mask2_1_7645)">
<g filter="url(#filter2_f_1_7645)">
<path d="M895.245 2529.5L-249.508 1802.81C-236.459 1792.06 -221.709 1783.25 -205.711 1776.8L-2.60606 1694.72C1.89024 1692.77 6.49055 1690.66 10.927 1688.45L184.556 1599.78C224.637 1579.27 254.506 1543.82 267.731 1501.23L318.013 1338.15C318.482 1336.69 318.909 1335.21 319.314 1333.71C319.701 1332.28 320.069 1330.83 320.436 1329.39L359.86 1171.3C372.297 1121.36 407.449 1079.89 455.137 1059.41L610.077 992.476C629.987 983.853 648.101 971.578 663.237 956.037L776.203 840.741C797.698 818.95 812.507 791.778 819.284 762.014L855.2 603.982C861.432 576.846 860.685 548.71 852.951 522.083L827.195 432.578C796.472 325.745 878.426 219.798 990.64 221.76L1029.23 222.483C1127.41 223.994 1205.93 141.929 1198.65 44.9463L1195.46 2.00305C1192.01 -43.3933 1207.84 -88.213 1238.82 -121.812L1336.8 -227.877C1347.38 -239.223 1356.26 -251.874 1363.17 -265.774L1455.01 -448.435C1457.71 -454.037 1460.24 -459.742 1462.45 -465.656L1517.41 -615.26C1533.37 -658.853 1567.29 -693.787 1610.66 -711.519L1728.14 -759.483C1778.74 -780.175 1816 -824.187 1827.62 -877.164L1845.66 -958.982C1856.8 -1009.06 1890.54 -1051.2 1937.34 -1073.16L2076.44 -1138.49C2101.96 -1150.41 2123.85 -1168.53 2140.25 -1191.03L2203.74 -1278.07C2227.07 -1309.94 2237.75 -1348.5 2234.96 -1386.82L3065.38 -859.67L3054.34 -836.637L2989.86 -708.397C2963.75 -656.618 2912.01 -622.022 2853.77 -617.383L2790.41 -612.338C2677.01 -603.166 2605.87 -487.153 2649.87 -383.326L2664.38 -348.964C2698.2 -269.425 2664.28 -177.341 2586.73 -137.865L2485.14 -86.2219C2483.39 -85.3165 2481.57 -84.4512 2479.73 -83.6013C2478.65 -83.1038 2477.56 -82.6111 2476.48 -82.1185L2340.34 -22.4568C2270.56 8.2323 2230.67 81.6721 2243.41 156.286L2248.98 188.399C2263.85 275.796 2206.45 359.152 2118.9 377.649C2025.45 397.422 1967.64 490.347 1992.13 581.797L1999.74 610.403C2021.4 691.591 1978.16 775.931 1899.36 806.619L1849.07 826.125C1797.22 846.248 1759.05 890.603 1747.06 944.493L1720.6 1063.26C1714.68 1089.92 1702.31 1114.75 1684.25 1135.52L1555.51 1283.78L1439.39 1429.3C1418.68 1455.25 1406.21 1486.66 1403.81 1519.66L1395.47 1631.86C1390.69 1696.04 1348.95 1751.62 1288.25 1774.36L1162.18 1821.66C1129.93 1833.65 1102.22 1855.39 1083.01 1883.66L1003.1 2000.73C987.721 2023.43 978.121 2049.35 975.395 2076.42L953.634 2286.88C952.915 2294.42 951.596 2301.81 949.847 2309.16L897.423 2521.64C896.765 2524.27 896.037 2526.89 895.245 2529.5Z" fill="#B1EAFF"/>
</g>
</g>
<path d="M343.504 249.843C314.827 250.407 291.118 227.838 290.548 199.434C289.978 171.029 312.763 147.544 341.44 146.979C370.117 146.415 393.826 168.984 394.397 197.389C394.967 225.794 372.181 249.278 343.504 249.843Z" fill="#B1EAFF"/>
<mask id="mask3_1_7645" style="mask-type:alpha" maskUnits="userSpaceOnUse" x="290" y="146" width="105" height="104">
<path d="M343.505 249.843C314.827 250.407 291.118 227.838 290.548 199.434C289.978 171.029 312.763 147.544 341.44 146.979C370.117 146.415 393.827 168.984 394.397 197.389C394.967 225.794 372.182 249.278 343.505 249.843Z" fill="#D9D9D9"/>
</mask>
<g mask="url(#mask3_1_7645)">
<g filter="url(#filter3_f_1_7645)">
<path d="M609.199 703.155L896.497 531.228C893.348 528.489 889.767 526.221 885.863 524.526L836.287 502.969C835.191 502.459 834.07 501.909 832.99 501.335L790.732 478.339C780.978 473.022 773.842 464.084 770.861 453.491L759.535 412.93C759.429 412.568 759.333 412.198 759.243 411.827C759.157 411.472 759.076 411.113 758.995 410.756L750.314 371.496C747.576 359.093 739.177 348.636 727.545 343.276L689.756 325.766C684.9 323.51 680.512 320.364 676.879 316.433L649.768 287.26C644.608 281.745 641.134 274.945 639.659 267.559L631.844 228.336C630.486 221.601 630.857 214.664 632.941 208.144L639.89 186.226C648.18 160.065 628.659 133.398 600.956 133.16L591.428 133.091C567.192 132.831 548.36 112.079 550.799 88.1974L551.87 77.6227C553.022 66.4443 549.414 55.2843 541.992 46.7952L518.517 19.996C515.982 17.1286 513.875 13.95 512.261 10.476L490.81 -35.1823C490.181 -36.5816 489.593 -38.0057 489.087 -39.4792L476.517 -76.7436C472.868 -87.602 464.728 -96.4387 454.143 -101.093L425.473 -113.683C413.125 -119.113 404.222 -130.213 401.704 -143.358L397.795 -163.662C395.378 -176.09 387.333 -186.703 375.93 -192.423L342.037 -209.435C335.82 -212.541 330.539 -217.151 326.64 -222.808L311.552 -244.692C306.006 -252.706 303.624 -262.286 304.569 -271.725L96.157 -147.005L98.7288 -141.252L113.788 -109.196C119.89 -96.2526 132.428 -87.3835 146.769 -85.865L162.369 -84.2123C190.293 -81.2203 207.077 -52.139 195.533 -26.8051L191.723 -18.4202C182.849 0.986511 190.611 23.9244 209.484 34.1633L234.212 47.5585C234.638 47.7931 235.081 48.0183 235.53 48.2398C235.793 48.3695 236.057 48.4982 236.323 48.6266L269.521 64.2226C286.536 72.2433 295.892 90.6195 292.254 108.947L290.667 116.834C286.418 138.302 300.029 159.237 321.51 164.364C344.441 169.844 358.09 193.143 351.439 215.549L349.372 222.557C343.489 242.45 353.601 263.537 372.84 271.615L385.122 276.751C397.783 282.05 406.909 293.239 409.509 306.612L415.252 336.086C416.535 342.699 419.423 348.906 423.742 354.147L454.529 391.554L482.218 428.208C487.157 434.742 490.025 442.571 490.398 450.728L491.713 478.467C492.467 494.333 502.398 508.313 517.226 514.313L548.021 526.797C555.901 529.962 562.593 535.504 567.146 542.601L586.089 572.001C589.734 577.7 591.931 584.156 592.424 590.853L596.399 642.918C596.527 644.784 596.803 646.617 597.186 648.441L608.714 701.201C608.859 701.856 609.021 702.506 609.199 703.155Z" fill="#D2CEFF"/>
</g>
</g>
<path d="M246.803 238.036C206.125 238.837 172.494 206.824 171.686 166.533C170.877 126.241 203.197 92.9295 243.874 92.1285C284.552 91.3275 318.183 123.341 318.991 163.632C319.8 203.923 287.48 237.235 246.803 238.036Z" fill="#B1EAFF"/>
<mask id="mask4_1_7645" style="mask-type:alpha" maskUnits="userSpaceOnUse" x="171" y="92" width="149" height="147">
<path d="M246.803 238.036C206.125 238.837 172.494 206.824 171.686 166.533C170.877 126.241 203.197 92.9295 243.874 92.1285C284.552 91.3275 318.183 123.341 318.991 163.632C319.8 203.923 287.48 237.235 246.803 238.036Z" fill="#D9D9D9"/>
</mask>
<g mask="url(#mask4_1_7645)">
<g filter="url(#filter4_f_1_7645)">
<path d="M-231.475 1366.32L504.612 1291.3C500.935 1282.9 495.952 1275.04 489.776 1268.01L411.415 1178.8C409.713 1176.77 408 1174.63 406.392 1172.47L343.986 1087.22C329.589 1067.52 323.853 1043.04 327.97 1019.14L343.915 927.689C344.047 926.865 344.208 926.041 344.381 925.217C344.547 924.43 344.725 923.637 344.903 922.851L364.888 836.462C371.209 809.177 364.397 780.488 346.297 758.959L287.589 688.805C280.05 679.777 274.288 669.412 270.781 658.188L244.438 574.733C239.39 558.925 238.922 542.125 242.998 526.019L264.671 440.514C268.361 425.817 275.69 412.328 286.039 401.269L320.711 364.038C362.086 319.595 348.497 248.214 293.491 221.912L274.562 212.889C226.489 189.778 208.654 130.834 236.202 85.4836L248.381 65.3931C261.295 44.1745 264.701 18.5544 257.966 -5.29541L236.62 -80.6254C234.29 -88.7065 233.108 -97.0101 233.19 -105.443L233.791 -216.496C233.866 -219.873 234.047 -223.261 234.437 -226.671L244.771 -312.704C247.81 -337.761 239.974 -362.974 223.293 -382.124L178.092 -433.961C158.63 -456.303 151.422 -486.738 158.889 -515.3L170.381 -559.436C177.366 -586.473 171.408 -615.143 154.108 -637.177L102.694 -702.704C93.2509 -714.692 87.0987 -728.809 84.697 -743.726L75.4056 -801.436C71.9576 -822.59 76.3134 -843.912 87.1554 -861.856L-446.816 -807.436L-447.15 -793.563L-447.566 -715.598C-447.705 -684.098 -431.133 -654.722 -403.984 -638.326L-374.452 -620.481C-321.622 -588.482 -315.779 -514.838 -362.86 -475.079L-378.417 -461.909C-414.542 -431.48 -420.858 -378.5 -392.953 -340.486L-356.38 -290.719C-355.749 -289.852 -355.081 -288.991 -354.394 -288.13C-353.997 -287.627 -353.587 -287.123 -353.184 -286.62L-301.81 -224.567C-275.505 -192.708 -274.308 -147.338 -298.967 -114.181L-309.62 -99.9315C-338.484 -61.0813 -331.235 -6.64014 -293.275 23.6102C-252.762 55.9173 -247.682 115.107 -282.225 153.588L-293.004 165.638C-323.626 199.824 -323.494 251.305 -292.809 285.351L-273.205 307.046C-252.995 329.417 -245.425 360.238 -252.945 389.331L-269.492 453.463C-273.217 467.848 -273.35 482.92 -269.719 497.398L-243.868 600.7L-223.482 699.613C-219.839 717.245 -221.56 735.533 -228.563 752.148L-252.289 808.69C-265.855 841.033 -259.337 878.177 -235.472 903.963L-185.932 957.572C-173.231 971.233 -165.149 988.522 -162.817 1006.92L-152.971 1083.21C-151.118 1097.97 -152.87 1112.9 -158.247 1126.71L-199.775 1234.25C-201.294 1238.09 -202.485 1242 -203.456 1246L-230.586 1361.96C-230.92 1363.41 -231.217 1364.85 -231.475 1366.32Z" fill="#D2CEFF"/>
</g>
</g>
<path d="M6.8798 205.603C-38.3412 162.858 -40.0162 91.8952 3.13864 47.1034C46.2934 2.31157 117.936 0.652497 163.157 43.3978C208.378 86.143 210.053 157.106 166.898 201.898C123.744 246.69 52.1008 248.349 6.8798 205.603Z" fill="#D2CEFF"/>
<mask id="mask5_1_7645" style="mask-type:alpha" maskUnits="userSpaceOnUse" x="-29" y="12" width="228" height="225">
<path d="M6.8798 205.603C-38.3412 162.858 -40.0162 91.8947 3.13864 47.1029C46.2934 2.31108 117.936 0.652009 163.157 43.3973C208.378 86.1425 210.053 157.105 166.898 201.897C123.744 246.689 52.1008 248.348 6.8798 205.603Z" fill="#D9D9D9"/>
</mask>
<g mask="url(#mask5_1_7645)">
<g filter="url(#filter5_f_1_7645)">
<path d="M425.597 2529.5L1570.35 1802.81C1557.3 1792.06 1542.55 1783.25 1526.55 1776.8L1323.45 1694.72C1318.95 1692.77 1314.35 1690.66 1309.92 1688.45L1136.29 1599.78C1096.2 1579.27 1066.34 1543.82 1053.11 1501.23L1002.83 1338.15C1002.36 1336.69 1001.93 1335.21 1001.53 1333.71C1001.14 1332.28 1000.77 1330.83 1000.41 1329.39L960.982 1171.3C948.545 1121.36 913.393 1079.89 865.705 1059.41L710.765 992.476C690.855 983.853 672.742 971.578 657.605 956.037L544.64 840.741C523.144 818.95 508.335 791.778 501.559 762.014L465.642 603.982C459.411 576.846 460.158 548.71 467.891 522.083L493.647 432.578C524.37 325.745 442.417 219.798 330.202 221.76L291.61 222.483C193.435 223.994 114.91 141.929 122.197 44.9463L125.38 2.00305C128.828 -43.3933 113.006 -88.213 82.0181 -121.812L-15.9578 -227.877C-26.535 -239.223 -35.4167 -251.874 -42.3254 -265.774L-134.168 -448.435C-136.866 -454.037 -139.4 -459.742 -141.612 -465.656L-196.566 -615.26C-212.527 -658.853 -246.453 -693.787 -289.821 -711.519L-407.3 -759.483C-457.898 -780.175 -495.158 -824.187 -506.782 -877.164L-524.823 -958.982C-535.961 -1009.06 -569.697 -1051.2 -616.495 -1073.16L-755.601 -1138.49C-781.117 -1150.41 -803.003 -1168.53 -819.411 -1191.03L-882.894 -1278.07C-906.224 -1309.94 -916.908 -1348.5 -914.115 -1386.82L-1744.54 -859.67L-1733.5 -836.637L-1669.01 -708.397C-1642.9 -656.618 -1591.17 -622.022 -1532.93 -617.383L-1469.57 -612.338C-1356.16 -603.166 -1285.03 -487.153 -1329.03 -383.326L-1343.54 -348.964C-1377.36 -269.425 -1343.44 -177.341 -1265.89 -137.865L-1164.3 -86.2219C-1162.54 -85.3165 -1160.73 -84.4512 -1158.89 -83.6013C-1157.8 -83.1038 -1156.72 -82.6111 -1155.64 -82.1185L-1019.5 -22.4568C-949.718 8.2323 -909.829 81.6721 -922.569 156.286L-928.135 188.399C-943.011 275.796 -885.611 359.152 -798.062 377.649C-704.605 397.422 -646.796 490.347 -671.291 581.797L-678.9 610.403C-700.559 691.591 -657.316 775.931 -578.522 806.619L-528.226 826.125C-476.38 846.248 -438.206 890.603 -426.223 944.493L-399.76 1063.26C-393.841 1089.92 -381.468 1114.75 -363.408 1135.52L-234.665 1283.78L-118.548 1429.3C-97.8342 1455.25 -85.366 1486.66 -82.9706 1519.66L-74.6245 1631.86C-69.8464 1696.04 -28.111 1751.62 32.592 1774.36L158.661 1821.66C190.917 1833.65 218.617 1855.39 237.831 1883.66L317.74 2000.73C333.121 2023.43 342.721 2049.35 345.448 2076.42L367.208 2286.88C367.928 2294.42 369.246 2301.81 370.995 2309.16L423.42 2521.64C424.078 2524.27 424.805 2526.89 425.597 2529.5Z" fill="#B1EAFF"/>
</g>
</g>
<defs>
<filter id="filter0_f_1_7645" x="373.95" y="-322.12" width="901.13" height="1075.67" filterUnits="userSpaceOnUse" color-interpolation-filters="sRGB">
<feFlood flood-opacity="0" result="BackgroundImageFix"/>
<feBlend mode="normal" in="SourceGraphic" in2="BackgroundImageFix" result="shape"/>
<feGaussianBlur stdDeviation="25.1976" result="effect1_foregroundBlur_1_7645"/>
</filter>
<filter id="filter1_f_1_7645" x="765.836" y="-912.252" width="1052.97" height="2328.96" filterUnits="userSpaceOnUse" color-interpolation-filters="sRGB">
<feFlood flood-opacity="0" result="BackgroundImageFix"/>
<feBlend mode="normal" in="SourceGraphic" in2="BackgroundImageFix" result="shape"/>
<feGaussianBlur stdDeviation="25.1976" result="effect1_foregroundBlur_1_7645"/>
</filter>
<filter id="filter2_f_1_7645" x="-317.896" y="-1455.21" width="3451.67" height="4053.1" filterUnits="userSpaceOnUse" color-interpolation-filters="sRGB">
<feFlood flood-opacity="0" result="BackgroundImageFix"/>
<feBlend mode="normal" in="SourceGraphic" in2="BackgroundImageFix" result="shape"/>
<feGaussianBlur stdDeviation="34.1942" result="effect1_foregroundBlur_1_7645"/>
</filter>
<filter id="filter3_f_1_7645" x="45.7619" y="-322.12" width="901.13" height="1075.67" filterUnits="userSpaceOnUse" color-interpolation-filters="sRGB">
<feFlood flood-opacity="0" result="BackgroundImageFix"/>
<feBlend mode="normal" in="SourceGraphic" in2="BackgroundImageFix" result="shape"/>
<feGaussianBlur stdDeviation="25.1976" result="effect1_foregroundBlur_1_7645"/>
</filter>
<filter id="filter4_f_1_7645" x="-497.962" y="-912.252" width="1052.97" height="2328.96" filterUnits="userSpaceOnUse" color-interpolation-filters="sRGB">
<feFlood flood-opacity="0" result="BackgroundImageFix"/>
<feBlend mode="normal" in="SourceGraphic" in2="BackgroundImageFix" result="shape"/>
<feGaussianBlur stdDeviation="25.1976" result="effect1_foregroundBlur_1_7645"/>
</filter>
<filter id="filter5_f_1_7645" x="-1812.93" y="-1455.21" width="3451.67" height="4053.1" filterUnits="userSpaceOnUse" color-interpolation-filters="sRGB">
<feFlood flood-opacity="0" result="BackgroundImageFix"/>
<feBlend mode="normal" in="SourceGraphic" in2="BackgroundImageFix" result="shape"/>
<feGaussianBlur stdDeviation="34.1942" result="effect1_foregroundBlur_1_7645"/>
</filter>
</defs>
</svg>
