<svg width="33" height="32" viewBox="0 0 33 32" fill="none" xmlns="http://www.w3.org/2000/svg">
<path d="M29.9143 0H2.53003C1.25537 0 0.222168 1.0332 0.222168 2.30786V29.6921C0.222168 30.9668 1.25537 32 2.53003 32H17.3159V19.625H13.1597V14.7812H17.3159V11.2166C17.3159 7.08276 19.8396 4.83276 23.5271 4.83276C25.2932 4.83276 26.811 4.96436 27.2534 5.02319V9.34375H24.7107C22.7043 9.34375 22.3159 10.2971 22.3159 11.6963V14.7812H27.1128L26.4878 19.625H22.3159V32H29.9143C31.189 32 32.2222 30.9668 32.2222 29.6921V2.30786C32.2222 1.0332 31.189 0 29.9143 0Z" fill="white"/>
</svg>
