<svg width="33" height="32" viewBox="0 0 33 32" fill="none" xmlns="http://www.w3.org/2000/svg">
<g clip-path="url(#clip0_361_99)">
<path d="M24.7222 0H7.72217C3.58003 0 0.222168 3.35786 0.222168 7.5V24.5C0.222168 28.6421 3.58003 32 7.72217 32H24.7222C28.8643 32 32.2222 28.6421 32.2222 24.5V7.5C32.2222 3.35786 28.8643 0 24.7222 0Z" fill="#202020"/>
<path d="M24.7222 0H7.72217C3.58003 0 0.222168 3.35786 0.222168 7.5V24.5C0.222168 28.6421 3.58003 32 7.72217 32H24.7222C28.8643 32 32.2222 28.6421 32.2222 24.5V7.5C32.2222 3.35786 28.8643 0 24.7222 0Z" fill="#202020"/>
<path d="M16.2234 1C12.1497 1 11.6384 1.01785 10.0385 1.0906C8.4416 1.1638 7.35156 1.41655 6.39787 1.78749C5.41118 2.17059 4.57433 2.68313 3.74064 3.51712C2.9062 4.35097 2.39366 5.18781 2.00936 6.17405C1.63736 7.12804 1.38432 8.21853 1.31247 9.81466C1.24092 11.4147 1.22217 11.9262 1.22217 16C1.22217 20.0738 1.24017 20.5835 1.31277 22.1834C1.38627 23.7803 1.63901 24.8703 2.00966 25.824C2.39306 26.8107 2.9056 27.6475 3.73959 28.4812C4.57313 29.3157 5.40998 29.8294 6.39592 30.2125C7.35036 30.5835 8.44055 30.8362 10.0371 30.9094C11.6372 30.9821 12.1481 31 16.2216 31C20.2957 31 20.8054 30.9821 22.4053 30.9094C24.0021 30.8362 25.0934 30.5835 26.0478 30.2125C27.0341 29.8294 27.8697 29.3157 28.7031 28.4812C29.5375 27.6475 30.0499 26.8107 30.4344 25.8245C30.8031 24.8703 31.0563 23.78 31.1313 22.1837C31.2031 20.5838 31.2219 20.0738 31.2219 16C31.2219 11.9262 31.2031 11.415 31.1313 9.81496C31.0563 8.21808 30.8031 7.12819 30.4344 6.1745C30.0499 5.18781 29.5375 4.35097 28.7031 3.51712C27.8688 2.68283 27.0344 2.17029 26.0469 1.78764C25.0907 1.41655 24 1.16365 22.4032 1.0906C20.8031 1.01785 20.2937 1 16.2187 1H16.2234ZM14.8777 3.70312C15.2772 3.70252 15.7228 3.70312 16.2234 3.70312C20.2285 3.70312 20.7031 3.71752 22.2847 3.78937C23.7471 3.85627 24.5409 4.10062 25.0697 4.30597C25.7697 4.57776 26.2688 4.90281 26.7935 5.42796C27.3185 5.95295 27.6434 6.4529 27.9159 7.15294C28.1213 7.68093 28.3659 8.47473 28.4325 9.93721C28.5043 11.5185 28.5199 11.9934 28.5199 15.9965C28.5199 19.9997 28.5043 20.4748 28.4325 22.0559C28.3656 23.5184 28.1213 24.3122 27.9159 24.8403C27.6441 25.5404 27.3185 26.0388 26.7935 26.5635C26.2685 27.0885 25.77 27.4134 25.0697 27.6853C24.5415 27.8916 23.7471 28.1353 22.2847 28.2022C20.7034 28.2741 20.2285 28.2897 16.2234 28.2897C12.2181 28.2897 11.7434 28.2741 10.1622 28.2022C8.69974 28.1347 7.90595 27.8904 7.37676 27.685C6.67686 27.4131 6.17677 27.0882 5.65177 26.5632C5.12678 26.0382 4.80188 25.5395 4.52934 24.8391C4.32399 24.311 4.07934 23.5172 4.01274 22.0547C3.94089 20.4734 3.92649 19.9985 3.92649 15.9928C3.92649 11.9872 3.94089 11.5147 4.01274 9.93346C4.07964 8.47098 4.32399 7.67718 4.52934 7.14844C4.80128 6.4484 5.12678 5.94845 5.65192 5.42346C6.17692 4.89846 6.67686 4.57341 7.37691 4.30102C7.90565 4.09477 8.69974 3.85102 10.1622 3.78382C11.546 3.72127 12.0822 3.70252 14.8777 3.69937V3.70312ZM24.2303 6.1937C23.2366 6.1937 22.4303 6.99919 22.4303 7.99308C22.4303 8.98682 23.2366 9.79306 24.2303 9.79306C25.224 9.79306 26.0303 8.98682 26.0303 7.99308C26.0303 6.99934 25.224 6.1931 24.2303 6.1931V6.1937ZM16.2234 8.29683C11.9694 8.29683 8.52035 11.7459 8.52035 16C8.52035 20.2541 11.9694 23.7015 16.2234 23.7015C20.4775 23.7015 23.9253 20.2541 23.9253 16C23.9253 11.746 20.4772 8.29683 16.2231 8.29683H16.2234ZM16.2234 11C18.9847 11 21.2234 13.2384 21.2234 16C21.2234 18.7613 18.9847 21.0001 16.2234 21.0001C13.4619 21.0001 11.2235 18.7613 11.2235 16C11.2235 13.2384 13.4619 11 16.2234 11Z" fill="white"/>
</g>
<defs>
<clipPath id="clip0_361_99">
<rect width="32" height="32" fill="white" transform="translate(0.222168)"/>
</clipPath>
</defs>
</svg>
