<svg width="131" height="32" viewBox="0 0 131 32" fill="none" xmlns="http://www.w3.org/2000/svg">
<path d="M34.265 10.5935L35.5801 10.3013V1.68026L34.265 1.38802V0.803549H38.4294C42.1554 0.803549 43.6166 2.55697 43.6166 5.77158C43.6166 9.27843 42.0824 11.251 38.5755 11.251H34.265V10.5935ZM38.6486 10.3743C40.9134 10.3743 42.0824 9.35149 42.0824 5.99076C42.0824 2.11862 40.6942 1.68026 38.2833 1.68026H37.1874V10.4474H38.6486V10.3743Z" fill="white"/>
<path d="M44.5658 7.30604C44.5658 4.82203 46.1731 3.36084 48.0726 3.36084C50.3375 3.36084 51.2142 4.89509 51.2142 7.30604H45.9539C46.027 9.3517 46.9768 10.3745 48.5841 10.3745C49.6799 10.3745 50.2644 10.1554 50.8489 9.93618V10.5937C50.3375 10.8859 49.6069 11.3243 48.2918 11.3243C45.6617 11.3974 44.5658 9.64394 44.5658 7.30604ZM49.6799 6.42933C49.6799 4.82203 49.0955 4.16449 47.9996 4.16449C46.8306 4.16449 46.1 4.89509 45.9539 6.57545L49.6799 6.42933Z" fill="white"/>
<path d="M52.0914 10.959L51.9453 8.91335H52.6759L53.1143 10.2284C53.4065 10.3745 53.9179 10.5937 54.5755 10.5937C55.5252 10.5937 56.1828 10.2284 56.1828 9.42476C56.1828 8.62111 55.8175 8.40193 54.7216 8.03664L53.9179 7.7444C52.749 7.3791 52.0184 6.72157 52.0184 5.55262C52.0184 4.38367 52.9681 3.36084 54.7946 3.36084C55.6713 3.36084 56.4019 3.50696 56.9133 3.65308V5.62568H56.2558L55.8905 4.45673C55.6713 4.31061 55.306 4.23755 54.6485 4.23755C53.8449 4.23755 53.1873 4.52979 53.1873 5.33344C53.1873 5.99097 53.5526 6.28321 54.6485 6.64851L55.4522 6.94075C56.8403 7.3791 57.3517 8.03664 57.3517 9.13253C57.3517 10.4476 56.3289 11.4704 54.3563 11.4704C53.6257 11.3974 52.749 11.1782 52.0914 10.959Z" fill="white"/>
<path d="M58.082 10.6667L59.1779 10.4475V4.52967L58.0089 4.31049V3.72602L60.4199 3.36072L60.566 3.43378V10.3744L61.6619 10.5936V11.105H58.082V10.6667ZM58.9587 1.242C58.9587 0.803644 59.324 0.365288 59.8354 0.365288C60.3468 0.365288 60.7121 0.730584 60.7121 1.242C60.7121 1.68036 60.3468 2.04565 59.8354 2.04565C59.324 2.11871 58.9587 1.68036 58.9587 1.242Z" fill="white"/>
<path d="M62.0266 12.4202C62.0266 11.6165 62.6841 11.0321 63.4878 10.6668V10.5937C62.9764 10.4476 62.6841 10.0823 62.6841 9.57088C62.6841 8.98641 63.0494 8.47499 63.6339 7.96358C62.9764 7.59828 62.538 6.94075 62.538 5.99098C62.538 4.31061 63.8531 3.36084 65.4604 3.36084C65.9718 3.36084 66.4832 3.4339 66.9216 3.65308L69.1864 3.36084V4.38367L67.7252 4.31061C68.0905 4.67591 68.3828 5.18732 68.3828 5.84486C68.3828 7.52522 67.0677 8.47499 65.4604 8.47499C64.949 8.47499 64.5106 8.40193 64.1453 8.25581C63.8531 8.54805 63.707 8.84029 63.707 9.13253C63.707 9.3517 63.8531 9.57088 64.2914 9.57088H66.8485C68.0905 9.57088 69.1864 10.0092 69.1864 11.4704C69.1864 13.0047 67.7983 14.3197 65.1682 14.3197C62.9033 14.3197 62.0266 13.2969 62.0266 12.4202ZM67.9444 11.7627C67.9444 11.0321 67.5061 10.8129 66.6294 10.8129H64.1453C63.6339 11.0321 63.3417 11.5435 63.3417 12.201C63.3417 12.9316 63.9262 13.443 65.3143 13.443C67.1408 13.443 67.9444 12.6394 67.9444 11.7627ZM67.0677 5.91792C67.0677 4.67591 66.4102 4.16449 65.4604 4.16449C64.5106 4.16449 63.8531 4.74897 63.8531 5.91792C63.8531 7.15993 64.5106 7.67134 65.4604 7.67134C66.4832 7.59828 67.0677 7.08687 67.0677 5.91792Z" fill="white"/>
<path d="M69.6257 10.6666L70.7216 10.4474V4.52961L69.6257 4.31043V3.72595L71.8906 3.36066L72.0367 3.43372V4.09125H72.1098C72.8403 3.65289 73.7901 3.2876 74.6668 3.2876C76.128 3.2876 76.8586 3.79901 76.8586 5.33326V10.3744L77.9545 10.5935V11.1049H74.3746V10.5935L75.4705 10.3744V5.69855C75.4705 4.67572 74.9591 4.38349 73.8632 4.38349C73.2056 4.38349 72.6942 4.52961 72.1098 4.74878V10.4474L73.2056 10.6666V11.178H69.6257V10.6666Z" fill="white"/>
<path d="M82.0456 3.79909L83.1415 3.50685C83.8721 0.803653 85.4794 0 86.8675 0C87.8903 0 88.4748 0.365296 88.4748 1.02283C88.4748 1.31507 88.2556 1.68036 88.0365 1.89954H87.0867L87.2328 0.949771C87.0867 0.876712 86.8675 0.803653 86.6483 0.803653C85.6986 0.803653 84.968 1.60731 84.4566 3.50685H86.4292L86.21 4.38356H84.2374L82.6301 10.8128C82.1187 12.9315 81.1689 14.1735 79.5616 14.1735C78.831 14.1735 78.3196 13.8813 78.3196 13.2968C78.3196 12.8584 78.6118 12.5662 78.831 12.4201H79.5616L79.4155 13.3699H79.4885C80.2191 13.3699 80.8036 13.0046 81.242 11.2511L82.9954 4.38356H81.9725L82.0456 3.79909Z" fill="white"/>
<path d="M85.772 8.69399C85.772 5.6255 88.256 3.2876 90.3747 3.2876C92.0551 3.2876 93.0048 4.38349 93.0048 5.91773C93.0048 8.98623 90.6669 11.3241 88.4752 11.3241C86.7948 11.3241 85.772 10.2282 85.772 8.69399ZM91.5437 5.69855C91.5437 4.67572 91.1053 4.16431 90.2286 4.16431C88.5482 4.16431 87.1601 6.64833 87.1601 8.98622C87.1601 10.0091 87.6715 10.5205 88.5482 10.5205C90.2286 10.5205 91.5437 8.10951 91.5437 5.69855Z" fill="white"/>
<path d="M95.3423 4.38349H94.1733L94.3195 3.72595L96.8035 3.2876L96.9496 3.43372L96.219 5.91773H96.2921C97.3149 4.23737 98.3377 3.2876 99.3605 3.2876C100.018 3.2876 100.237 3.57983 100.237 4.01819C100.237 4.38349 100.018 4.8949 99.6528 5.2602H98.703L98.8491 4.31043C97.9724 4.60267 96.8035 5.84467 95.7806 7.52504L94.6848 11.1049H93.2966L95.3423 4.38349Z" fill="white"/>
<path d="M34.3374 26.0091L35.9447 25.6438V14.9771L34.3374 14.6118V12.9315H46.3191L46.5383 17.1689H44.5657L43.7621 14.9041H39.5246V19.2146H41.3511L41.7895 17.6073H43.3968V22.7214H41.7895L41.3511 21.1141H39.5246V25.7899H43.8351L44.931 23.0137H46.9036L46.6844 27.7625H34.3374V26.0091Z" fill="white"/>
<path d="M48.219 18.3379L47.1962 18.0457V16.4384H52.8217V18.0457L51.7258 18.2649L53.7715 24.4018H53.8446L55.9633 18.2649L54.8674 18.0457V16.4384H59.3971V18.0457L58.3742 18.3379L54.7943 27.7626H51.7258L48.219 18.3379Z" fill="white"/>
<path d="M59.5436 21.9908C59.5436 18.3379 61.8084 16.1461 65.0961 16.1461C68.5299 16.1461 70.0641 18.0456 70.0641 22.4292H62.9774C63.1235 24.694 64.2924 25.6438 66.265 25.6438C67.7993 25.6438 68.7491 25.3516 69.5527 25.1324V26.8858C68.7491 27.3972 67.507 27.9817 65.4614 27.9817C61.5162 27.9817 59.5436 25.7169 59.5436 21.9908ZM66.7765 20.7488C66.7765 18.7762 66.1189 18.1187 65.023 18.1187C63.8541 18.1187 63.1235 18.8493 62.9774 20.895L66.7765 20.7488Z" fill="white"/>
<path d="M70.7943 26.1552L72.1093 25.863V18.7031L70.7212 18.3379V16.7305L74.9586 16.2191L75.2509 16.3652V17.9726H75.397C75.9815 17.0228 77.0043 16.2191 78.2463 16.2191C78.4655 16.2191 78.6847 16.2922 78.8308 16.2922V19.2146C78.5385 19.1415 78.1732 19.1415 77.881 19.1415C76.8582 19.1415 76.0545 19.2876 75.397 19.6529V25.863L77.0773 26.1552V27.6894H70.7943V26.1552Z" fill="white"/>
<path d="M80.731 31.6347V29.589C81.2424 29.6621 81.5347 29.7351 81.9 29.7351C82.9228 29.7351 83.5803 29.4429 83.9456 28.4931L84.384 27.4703L80.5119 18.2648L79.489 17.9726V16.3653H85.1876V17.9726L84.0187 18.2648L86.2105 24.0365H86.2835L88.11 18.2648L86.9411 17.9726V16.3653H91.6169V17.9726L90.594 18.2648L86.5027 29.0046C85.7721 30.9772 84.8224 32 82.7036 32C81.973 32 81.0963 31.8539 80.731 31.6347Z" fill="white"/>
<path d="M92.2009 20.3105C92.2009 14.9041 95.7078 12.5662 99.2877 12.5662C103.233 12.5662 106.228 15.0503 106.228 20.1644C106.228 25.5708 102.795 27.9087 99.1416 27.9087C95.2694 27.9818 92.2009 25.4247 92.2009 20.3105ZM102.502 20.4566C102.502 16.3653 101.406 14.758 99.2877 14.758C97.169 14.758 96.0731 16.5845 96.0731 20.0914C96.0731 24.0366 96.9498 25.79 99.2877 25.79C101.333 25.79 102.502 23.9635 102.502 20.4566Z" fill="white"/>
<path d="M107.105 26.1552L108.42 25.863V18.7031L107.032 18.3379V16.7305L111.269 16.2191L111.562 16.3652V17.5342H111.708C112.804 16.7305 113.9 16.2191 115.434 16.2191C117.26 16.2191 118.429 17.0228 118.429 19.0684V25.863L119.744 26.1552V27.6894H114.046V26.1552L115.142 25.863V20.1643C115.142 19.0684 114.63 18.7031 113.534 18.7031C112.877 18.7031 112.292 18.8493 111.781 19.0684V25.863L112.877 26.1552V27.6894H107.105V26.1552Z" fill="white"/>
<path d="M120.401 21.9908C120.401 18.3379 122.666 16.1461 125.954 16.1461C129.388 16.1461 130.922 18.0456 130.922 22.4292H123.835C123.981 24.694 125.15 25.6438 127.123 25.6438C128.657 25.6438 129.607 25.3516 130.41 25.1324V26.8858C129.607 27.3972 128.365 27.9817 126.319 27.9817C122.301 27.9817 120.401 25.7169 120.401 21.9908ZM127.561 20.7488C127.561 18.7762 126.904 18.1187 125.808 18.1187C124.639 18.1187 123.908 18.8493 123.762 20.895L127.561 20.7488Z" fill="white"/>
<path d="M22.5753 28.2741H7.67123C3.43379 28.2741 0 24.8403 0 20.6028V8.69418C0 4.45674 3.43379 1.02295 7.67123 1.02295H22.5753C26.8128 1.02295 30.2466 4.45674 30.2466 8.69418V20.6028C30.2466 24.8403 26.8128 28.2741 22.5753 28.2741ZM7.67123 2.55719C4.23744 2.55719 1.53424 5.33345 1.53424 8.69418V20.6028C1.53424 24.0366 4.3105 26.7398 7.67123 26.7398H22.5753C26.0091 26.7398 28.7123 23.9636 28.7123 20.6028V8.69418C28.7123 5.26039 25.9361 2.55719 22.5753 2.55719H7.67123Z" fill="white"/>
<path d="M7.59864 24.4016L5.11462 21.9176L9.57124 17.5341C10.3018 16.8035 10.7402 15.7806 10.7402 14.7578C10.7402 13.735 10.3018 12.7122 9.57124 11.9816L5.11462 7.598L7.59864 5.11399L12.0553 9.49755C13.4434 10.8857 14.247 12.7852 14.247 14.7578C14.247 16.7304 13.4434 18.63 12.0553 20.0181L7.59864 24.4016Z" fill="white"/>
<path d="M22.7213 24.4016L18.2647 20.018C16.8765 18.6299 16.0729 16.7303 16.0729 14.7577C16.0729 12.7851 16.8765 10.8856 18.2647 9.49746L22.7213 5.1139L25.2053 7.59792L20.7487 11.9815C20.0181 12.7121 19.5797 13.7349 19.5797 14.7577C19.5797 15.7806 20.0181 16.8034 20.7487 17.534L25.2053 21.9175L22.7213 24.4016Z" fill="white"/>
<path d="M25.1326 12.9314H21.6257V16.4382H25.1326V12.9314Z" fill="white"/>
</svg>
