<svg width="189" height="56" viewBox="0 0 189 56" fill="none" xmlns="http://www.w3.org/2000/svg">
<rect x="0.5" y="0.5" width="188" height="55" rx="4.5" fill="#202020"/>
<rect x="0.5" y="0.5" width="188" height="55" rx="4.5" stroke="#8F8F99"/>
<path d="M149.708 42.0004H152.32V24.4982H149.708V42.0004ZM173.237 30.8032L170.243 38.3911H170.153L167.045 30.8032H164.231L168.893 41.4082L166.235 47.3078H168.959L176.142 30.8032H173.237ZM158.421 40.0125C157.567 40.0125 156.373 39.5843 156.373 38.5262C156.373 37.1753 157.86 36.6574 159.142 36.6574C160.29 36.6574 160.832 36.9047 161.529 37.2426C161.326 38.8641 159.93 40.0125 158.421 40.0125ZM158.738 30.4203C156.846 30.4203 154.888 31.2537 154.077 33.1L156.395 34.068C156.891 33.1 157.814 32.785 158.782 32.785C160.133 32.785 161.507 33.5949 161.529 35.0365V35.2164C161.056 34.9462 160.042 34.5411 158.805 34.5411C156.304 34.5411 153.761 35.9142 153.761 38.4812C153.761 40.823 155.81 42.3318 158.106 42.3318C159.862 42.3318 160.832 41.5437 161.438 40.6201H161.529V41.972H164.052V35.2612C164.052 32.1539 161.731 30.4203 158.738 30.4203ZM142.593 32.9337H138.877V26.9346H142.593C144.546 26.9346 145.655 28.5512 145.655 29.9341C145.655 31.2904 144.546 32.9337 142.593 32.9337ZM142.526 24.4982H136.266V42.0004H138.877V35.3696H142.526C145.421 35.3696 148.267 33.2739 148.267 29.9341C148.267 26.5949 145.421 24.4982 142.526 24.4982ZM108.392 40.0158C106.587 40.0158 105.076 38.5042 105.076 36.4299C105.076 34.3316 106.587 32.7986 108.392 32.7986C110.173 32.7986 111.572 34.3316 111.572 36.4299C111.572 38.5042 110.173 40.0158 108.392 40.0158ZM111.391 31.7832H111.301C110.715 31.0842 109.586 30.4526 108.166 30.4526C105.189 30.4526 102.46 33.0694 102.46 36.4299C102.46 39.7675 105.189 42.3613 108.166 42.3613C109.586 42.3613 110.715 41.7296 111.301 41.0084H111.391V41.8647C111.391 44.1436 110.173 45.3609 108.211 45.3609C106.61 45.3609 105.618 44.2109 105.211 43.2413L102.934 44.1884C103.587 45.7667 105.324 47.707 108.211 47.707C111.279 47.707 113.873 45.9023 113.873 41.5038V30.8136H111.391V31.7832ZM115.678 42.0004H118.293V24.4982H115.678V42.0004ZM122.15 36.2265C122.083 33.9258 123.933 32.7533 125.263 32.7533C126.301 32.7533 127.179 33.2722 127.474 34.0161L122.15 36.2265ZM130.269 34.2413C129.773 32.9113 128.262 30.4526 125.172 30.4526C122.104 30.4526 119.556 32.866 119.556 36.407C119.556 39.7451 122.083 42.3613 125.465 42.3613C128.194 42.3613 129.773 40.6928 130.428 39.7226L128.398 38.3691C127.721 39.3617 126.797 40.0158 125.465 40.0158C124.135 40.0158 123.187 39.4066 122.579 38.2112L130.54 34.9184L130.269 34.2413ZM66.8384 32.2796V34.8057H72.8829C72.7025 36.2265 72.2289 37.2639 71.507 37.9858C70.6271 38.8651 69.2512 39.8353 66.8384 39.8353C63.1168 39.8353 60.2075 36.8357 60.2075 33.1142C60.2075 29.3927 63.1168 26.3926 66.8384 26.3926C68.8459 26.3926 70.3116 27.1822 71.3943 28.1972L73.1767 26.415C71.6651 24.9718 69.658 23.8666 66.8384 23.8666C61.7403 23.8666 57.4551 28.0168 57.4551 33.1142C57.4551 38.2112 61.7403 42.3613 66.8384 42.3613C69.5897 42.3613 71.6651 41.459 73.2888 39.7675C74.9579 38.0985 75.4769 35.7529 75.4769 33.858C75.4769 33.2722 75.4314 32.7309 75.3412 32.2796H66.8384ZM82.3489 40.0158C80.5442 40.0158 78.9878 38.5271 78.9878 36.407C78.9878 34.2643 80.5442 32.7986 82.3489 32.7986C84.1529 32.7986 85.7093 34.2643 85.7093 36.407C85.7093 38.5271 84.1529 40.0158 82.3489 40.0158ZM82.3489 30.4526C79.055 30.4526 76.3715 32.9561 76.3715 36.407C76.3715 39.8353 79.055 42.3613 82.3489 42.3613C85.6416 42.3613 88.3256 39.8353 88.3256 36.407C88.3256 32.9561 85.6416 30.4526 82.3489 30.4526ZM95.3868 40.0158C93.5833 40.0158 92.0264 38.5271 92.0264 36.407C92.0264 34.2643 93.5833 32.7986 95.3868 32.7986C97.1916 32.7986 98.7474 34.2643 98.7474 36.407C98.7474 38.5271 97.1916 40.0158 95.3868 40.0158ZM95.3868 30.4526C92.0942 30.4526 89.4106 32.9561 89.4106 36.407C89.4106 39.8353 92.0942 42.3613 95.3868 42.3613C98.6807 42.3613 101.364 39.8353 101.364 36.407C101.364 32.9561 98.6807 30.4526 95.3868 30.4526Z" fill="white"/>
<path d="M62.2672 18.5283C61.012 18.5283 59.9324 18.0867 59.062 17.2164C58.1911 16.3455 57.75 15.255 57.75 13.9871C57.75 12.7191 58.1913 11.6306 59.062 10.7578C59.9324 9.88731 61.012 9.44581 62.2672 9.44581C62.9066 9.44581 63.5034 9.55626 64.0738 9.78624C64.6443 10.0163 65.1111 10.3355 65.4787 10.7534L65.5654 10.8521L64.5862 11.831L64.4883 11.7107C64.2446 11.4112 63.9345 11.1785 63.5417 11.0093C63.1503 10.8406 62.7215 10.7627 62.2672 10.7627C61.3831 10.7627 60.6496 11.0629 60.037 11.6732C60.0369 11.6734 60.0366 11.6734 60.0365 11.6735C59.4378 12.2962 59.1369 13.0542 59.1369 13.9871C59.1369 14.9206 59.4382 15.6789 60.0376 16.3017C60.6501 16.9118 61.3836 17.2136 62.2672 17.2136C63.0765 17.2136 63.7458 16.9877 64.272 16.5404H64.2723C64.7622 16.1242 65.0562 15.5616 65.1602 14.8446H62.1272V13.5539H66.471L66.4896 13.6721C66.5252 13.8989 66.5503 14.118 66.5503 14.3283C66.5503 15.5326 66.1832 16.5156 65.4628 17.2388C64.6497 18.1008 63.5803 18.5283 62.2672 18.5283L62.2672 18.5283ZM99.9857 18.5283C98.7286 18.5283 97.6616 18.0864 96.8023 17.2164C96.8022 17.2163 96.8022 17.2162 96.8021 17.2161C96.802 17.216 96.8019 17.2159 96.8018 17.2158C95.9414 16.3551 95.5144 15.2644 95.5144 13.987C95.5144 12.7097 95.9414 11.619 96.8018 10.7583C96.8019 10.7582 96.8019 10.7582 96.8021 10.758L96.8023 10.7577C97.6616 9.8875 98.7286 9.44579 99.9857 9.44579C101.24 9.44579 102.308 9.88761 103.167 10.7709C104.028 11.6314 104.455 12.7201 104.455 13.987C104.455 15.2644 104.028 16.3551 103.167 17.2158L103.167 17.2161C102.307 18.0868 101.23 18.5283 99.9857 18.5283L99.9857 18.5283ZM67.7934 18.3402V9.63394H67.9334H72.993V10.9508H69.1562V13.3417H72.6168V14.6324H69.1562V17.0255H72.993V18.3402H67.7934ZM76.1753 18.3402V10.9508H73.8216V9.63394H79.8919V10.9508H79.7519H77.5381V18.3402H76.1753ZM83.7714 18.3402V9.63394H85.1342V9.77394V18.3402H83.7714ZM88.5648 18.3402V10.9508H86.211V9.63394H92.2813V10.9508H92.1413H89.9276V18.3402H88.5648ZM105.664 18.3402V9.63394H107.201L111.112 15.8951L111.079 14.7065V9.63394H112.441V18.3402H111.093L106.994 11.7626L107.027 12.9505V12.9524V18.3402H105.664ZM99.9857 17.2136C100.87 17.2136 101.591 16.9121 102.18 16.3028L102.181 16.3017L102.181 16.3008C102.778 15.704 103.07 14.9357 103.07 13.987C103.07 13.0406 102.778 12.2697 102.181 11.6732L102.181 11.6723L102.18 11.6715C101.592 11.0623 100.87 10.7626 99.9857 10.7626C99.0999 10.7626 98.3784 11.0618 97.7791 11.671L97.7785 11.6715C97.1929 12.2826 96.9013 13.0409 96.9013 13.987C96.9013 14.9354 97.1928 15.6913 97.7785 16.3025L97.7791 16.303C98.3785 16.9123 99.1002 17.2136 99.9857 17.2136V17.2136Z" fill="white"/>
<path d="M28.9988 27.1929L14.0938 43.0129C14.0943 43.0162 14.0954 43.0189 14.096 43.0222C14.5531 44.74 16.1221 46.0049 17.9842 46.0049C18.7286 46.0049 19.4275 45.8036 20.0268 45.4503L20.0744 45.4225L36.852 35.7412L28.9988 27.1929Z" fill="#EA4335"/>
<path d="M44.0782 24.4988L44.0639 24.489L36.8206 20.29L28.6602 27.5515L36.849 35.7393L44.0541 31.582C45.3174 30.9 46.1749 29.5683 46.1749 28.0327C46.1749 26.5081 45.3288 25.183 44.0782 24.4988Z" fill="#FBBC04"/>
<path d="M14.0937 12.987C14.0041 13.3174 13.957 13.6635 13.957 14.0229V41.9775C13.957 42.3362 14.0036 42.6835 14.0943 43.0127L29.5123 27.5974L14.0937 12.987Z" fill="#1273EB"/>
<path d="M29.1093 28L36.8241 20.2874L20.0656 10.5711C19.4564 10.2063 18.7455 9.99572 17.9847 9.99572C16.1226 9.99572 14.5515 11.2629 14.0943 12.9828C14.0937 12.9844 14.0937 12.9856 14.0937 12.9871L29.1093 28Z" fill="#34A853"/>
</svg>
