<svg width="143" height="135" viewBox="0 0 143 135" fill="none" xmlns="http://www.w3.org/2000/svg">
<g opacity="0.3">
<path d="M136.735 70.2059C134.129 78.5871 128.841 86.0415 121.984 91.4998C115.084 96.9821 106.691 100.483 97.8689 101.108C89.3306 101.713 80.6662 99.5817 73.2053 95.4334C69.4704 93.3616 66.016 90.7487 63.0155 87.7032C59.9919 84.6363 57.3259 81.0652 55.4961 77.157C53.6125 73.1309 52.5523 68.4567 53.9263 64.0963C55.3926 59.4918 58.5951 55.4389 62.4709 52.6046C66.3988 49.7414 71.0725 47.6932 75.9241 47.1598C78.0775 46.9244 80.267 46.9189 82.3606 47.5004C84.2244 48.0157 86.0188 48.8988 87.6001 50.0132C90.57 52.0986 93.4328 55.3679 93.333 59.2175C93.281 61.2002 92.3917 63.1684 91.4701 64.8931C90.3953 66.8957 89.0445 68.7894 87.4644 70.4122C85.9057 72.0118 83.973 73.2841 82.0994 74.4783C80.013 75.8015 77.8449 76.9766 75.5998 78.0125C71.1135 80.0708 66.3639 81.5703 61.4989 82.4291C56.7489 83.2698 51.7828 83.6165 46.98 83.0663C42.352 82.5446 37.903 81.0719 33.7781 78.9316C24.5965 74.1775 17.5411 66.3629 11.6265 58.0429C10.0959 55.8894 8.63486 53.6974 7.20387 51.4775C6.90938 51.0267 7.14948 50.3714 7.59337 50.1262C8.08948 49.8521 8.65013 50.0649 8.94462 50.5157C14.4444 59.0308 20.5575 67.5251 28.8477 73.5442C32.394 76.1178 36.2823 78.2411 40.4466 79.6098C44.7191 81.0096 49.1116 81.4342 53.5915 81.2767C62.956 80.9538 72.2674 78.1496 80.2652 73.2764C82.1019 72.1594 83.9978 70.9642 85.5659 69.4844C87.0566 68.07 88.3006 66.3944 89.3363 64.6293C90.2342 63.088 91.2026 61.2011 91.3264 59.4513C91.4411 57.9111 90.8977 56.4958 90.047 55.1822C88.1665 52.3132 84.8288 50.1583 81.5054 49.3248C79.6029 48.8422 77.505 48.9107 75.5494 49.1959C73.2577 49.5305 71.0154 50.2013 68.9135 51.1468C64.7532 53.0136 60.9866 55.799 58.3874 59.5867C57.1314 61.4053 56.0758 63.4426 55.5772 65.604C55.1323 67.5539 55.225 69.593 55.6435 71.543C56.5178 75.5928 58.6744 79.3318 61.1895 82.5887C63.6622 85.7894 66.6188 88.632 69.9202 90.9887C76.4779 95.6816 84.3242 98.5945 92.3838 99.1176C100.68 99.6576 108.901 97.5124 116.011 93.2321C123.095 88.9662 128.947 82.6769 132.594 75.2543C133.481 73.4464 134.219 71.5735 134.816 69.6529C135.211 68.4349 137.116 68.9841 136.735 70.2059Z" fill="#020202"/>
<path d="M3.24462 58.7312C3.33853 58.6339 3.41895 58.5327 3.50806 58.4266C3.45286 58.4912 3.40247 58.5645 3.34727 58.6291C3.89656 57.9166 4.28096 57.0908 4.66628 56.2871C5.07679 55.4468 5.47378 54.6027 5.86597 53.7498C6.08636 53.2645 6.30192 52.7705 6.51749 52.2765C6.4806 52.3537 6.45243 52.4261 6.42036 52.5119C6.67281 51.9408 6.89342 51.3531 7.15938 50.7858C7.47781 50.0873 8.1927 49.6128 8.97484 49.6919C9.5291 49.7492 10.0627 49.9543 10.6071 50.0966C11.1023 50.232 11.6013 50.3539 12.0994 50.4535C12.6651 50.5727 13.2347 50.6783 13.7947 50.7666C13.7097 50.7567 13.6335 50.7421 13.5437 50.7235C15.0846 50.9628 16.6335 51.0726 18.1953 51.0618C18.6357 51.057 19.0849 51.0475 19.5379 51.0244C19.7775 51.0056 20.0639 51.1541 20.2268 51.3254C20.4031 51.5006 20.5309 51.7936 20.51 52.0437C20.4891 52.2938 20.4064 52.5553 20.209 52.7326C20.0028 52.9146 19.766 53 19.4907 53.0158C16.6393 53.1598 13.7753 52.8904 11.0068 52.2387C10.6293 52.1519 10.2558 52.0515 9.88226 51.9512C9.51742 51.846 9.14684 51.7099 8.77031 51.6453C8.85528 51.6552 8.93154 51.6698 9.02132 51.6884C8.92284 51.6746 8.82916 51.6696 8.71808 51.6742C8.80214 51.6618 8.89104 51.6581 8.97509 51.6458C8.89974 51.6533 8.82918 51.6696 8.76345 51.6945C8.84659 51.66 8.92972 51.6254 9.01767 51.5995C8.96064 51.6197 8.89972 51.6533 8.8523 51.6909C8.92583 51.6389 8.99936 51.5869 9.06808 51.5262C9.01196 51.5686 8.96937 51.6148 8.92676 51.6611C8.98197 51.5965 9.03235 51.5232 9.08755 51.4587C8.99455 51.5782 8.92856 51.7056 8.86739 51.8416C8.90427 51.7644 8.93245 51.692 8.96452 51.6062C7.98563 53.8852 7.02029 56.168 5.86871 58.3607C5.53884 58.9974 5.15398 59.5962 4.66403 60.1282C4.49361 60.3133 4.18622 60.4149 3.94573 60.4115C3.70525 60.408 3.4158 60.2953 3.25687 60.1104C2.85794 59.7174 2.86988 59.1428 3.24462 58.7312Z" fill="#020202"/>
</g>
</svg>
