<svg width="32" height="32" viewBox="0 0 32 32" fill="none" xmlns="http://www.w3.org/2000/svg">
<rect width="32" height="32" rx="2" fill="#121212" fill-opacity="0.6"/>
<path d="M7.77333 19.1108C7.39314 16.6395 7.01295 14.1683 6.63276 11.6971C6.54845 11.1493 7.17176 10.7756 7.61514 11.1082C8.79964 11.9966 9.98408 12.8849 11.1686 13.7733C11.5586 14.0658 12.1142 13.9706 12.3846 13.565L15.3429 9.12746C15.6555 8.65852 16.3445 8.65852 16.6571 9.12746L19.6154 13.565C19.8858 13.9706 20.4415 14.0657 20.8315 13.7733C22.016 12.8849 23.2004 11.9966 24.3849 11.1082C24.8283 10.7756 25.4516 11.1493 25.3673 11.6971C24.9871 14.1683 24.6069 16.6395 24.2268 19.1108H7.77333Z" fill="#00E44A"/>
<path d="M7.77333 19.1108C7.39314 16.6395 7.01295 14.1683 6.63276 11.6971C6.54845 11.1493 7.17176 10.7756 7.61514 11.1082C8.79964 11.9966 9.98408 12.8849 11.1686 13.7733C11.5586 14.0658 12.1142 13.9706 12.3846 13.565L15.3429 9.12746C15.6555 8.65852 16.3445 8.65852 16.6571 9.12746L19.6154 13.565C19.8858 13.9706 20.4415 14.0657 20.8315 13.7733C22.016 12.8849 23.2004 11.9966 24.3849 11.1082C24.8283 10.7756 25.4516 11.1493 25.3673 11.6971C24.9871 14.1683 24.6069 16.6395 24.2268 19.1108H7.77333Z" fill="black" fill-opacity="0.2"/>
<path d="M23.3689 23.2241H8.63113C8.15738 23.2241 7.77332 22.8401 7.77332 22.3663V20.4819H24.2268V22.3663C24.2267 22.8401 23.8426 23.2241 23.3689 23.2241Z" fill="#00E44A"/>
<path d="M23.3689 23.2241H8.63113C8.15738 23.2241 7.77332 22.8401 7.77332 22.3663V20.4819H24.2268V22.3663C24.2267 22.8401 23.8426 23.2241 23.3689 23.2241Z" fill="black" fill-opacity="0.2"/>
</svg>
