<svg width="48" height="40" viewBox="0 0 48 40" fill="none" xmlns="http://www.w3.org/2000/svg">
<g clip-path="url(#clip0_1_7249)">
<path d="M48 1.57216V38.4287C48 39.3429 47.259 40.0839 46.3448 40.0839H1.65517C0.741 40.0839 0 39.3429 0 38.4287V1.57216C0 0.657992 0.741 -0.0830078 1.65517 -0.0830078H46.3448C47.259 -0.0830078 48 0.657992 48 1.57216Z" fill="#B3EAFF"/>
<path d="M30.7972 9.8002L30.2032 12.2002L29.9992 12.8002H17.9992L17.7952 12.2002L17.2012 9.8002L17.3992 9.2002H30.5992L30.7972 9.8002Z" fill="#EC9F1B"/>
<path d="M31.7824 5.82192L30.7984 9.79992H17.2024L16.2184 5.82192C16.1904 5.71144 16.1931 5.59543 16.2261 5.48635C16.2591 5.37727 16.3212 5.27924 16.4057 5.20276C16.4902 5.12629 16.5939 5.07427 16.7057 5.05227C16.8175 5.03028 16.9332 5.03914 17.0404 5.07792L20.8984 6.54792L23.4964 2.86392C23.5525 2.78212 23.6278 2.71522 23.7156 2.669C23.8034 2.62279 23.9011 2.59863 24.0004 2.59863C24.0996 2.59863 24.1973 2.62279 24.2851 2.669C24.373 2.71522 24.4482 2.78212 24.5044 2.86392L27.1024 6.54792L30.9604 5.07792C31.0675 5.03914 31.1832 5.03028 31.295 5.05227C31.4069 5.07427 31.5106 5.12629 31.5951 5.20276C31.6796 5.27924 31.7416 5.37727 31.7746 5.48635C31.8076 5.59543 31.8103 5.71144 31.7824 5.82192Z" fill="#F4B615"/>
<path d="M10.1992 27.2002V35.6002C10.1992 36.0776 10.3889 36.5354 10.7264 36.873C11.064 37.2106 11.5218 37.4002 11.9992 37.4002H35.9992C36.4766 37.4002 36.9344 37.2106 37.272 36.873C37.6096 36.5354 37.7992 36.0776 37.7992 35.6002V27.2002H10.1992Z" fill="#E3FFEC"/>
<path d="M37.7992 14.0002V27.8002H10.1992V14.0002C10.1992 13.5228 10.3889 13.065 10.7264 12.7274C11.064 12.3898 11.5218 12.2002 11.9992 12.2002H35.9992C36.4766 12.2002 36.9344 12.3898 37.272 12.7274C37.6096 13.065 37.7992 13.5228 37.7992 14.0002Z" fill="#3596BC"/>
<path d="M10.1992 27.7997L19.1422 20.8277C19.3293 20.68 19.5608 20.5996 19.7992 20.5996C20.0376 20.5996 20.2691 20.68 20.4562 20.8277L23.9992 23.5895L24.5992 27.7997H10.1992Z" fill="#2D83A5"/>
<path d="M37.7996 27.7997L28.8596 20.8277C28.6725 20.68 28.441 20.5996 28.2026 20.5996C27.9642 20.5996 27.7327 20.68 27.5456 20.8277L18.5996 27.7997H37.7996Z" fill="#4AA8D1"/>
<path d="M14.9996 19.3996C16.3251 19.3996 17.3996 18.3251 17.3996 16.9996C17.3996 15.6741 16.3251 14.5996 14.9996 14.5996C13.6741 14.5996 12.5996 15.6741 12.5996 16.9996C12.5996 18.3251 13.6741 19.3996 14.9996 19.3996Z" fill="#FCD018"/>
<path d="M24 18.7996H21.6C21.4409 18.7996 21.2883 18.7364 21.1757 18.6239C21.0632 18.5114 21 18.3587 21 18.1996C21 18.0405 21.0632 17.8879 21.1757 17.7753C21.2883 17.6628 21.4409 17.5996 21.6 17.5996H24C24.1591 17.5996 24.3117 17.6628 24.4243 17.7753C24.5368 17.8879 24.6 18.0405 24.6 18.1996C24.6 18.3587 24.5368 18.5114 24.4243 18.6239C24.3117 18.7364 24.1591 18.7996 24 18.7996Z" fill="white"/>
<path d="M28.8008 15.7996H26.4008C26.2417 15.7996 26.089 15.7364 25.9765 15.6239C25.864 15.5114 25.8008 15.3587 25.8008 15.1996C25.8008 15.0405 25.864 14.8879 25.9765 14.7753C26.089 14.6628 26.2417 14.5996 26.4008 14.5996H28.8008C28.9599 14.5996 29.1125 14.6628 29.225 14.7753C29.3376 14.8879 29.4008 15.0405 29.4008 15.1996C29.4008 15.3587 29.3376 15.5114 29.225 15.6239C29.1125 15.7364 28.9599 15.7996 28.8008 15.7996Z" fill="white"/>
<path d="M34.8008 18.2H32.4008C32.2417 18.2 32.089 18.1368 31.9765 18.0243C31.864 17.9117 31.8008 17.7591 31.8008 17.6C31.8008 17.4409 31.864 17.2883 31.9765 17.1757C32.089 17.0632 32.2417 17 32.4008 17H34.8008C34.9599 17 35.1125 17.0632 35.225 17.1757C35.3376 17.2883 35.4008 17.4409 35.4008 17.6C35.4008 17.7591 35.3376 17.9117 35.225 18.0243C35.1125 18.1368 34.9599 18.2 34.8008 18.2Z" fill="white"/>
<path d="M24.0004 30.7996H15.0004C14.8413 30.7996 14.6886 30.7364 14.5761 30.6239C14.4636 30.5114 14.4004 30.3587 14.4004 30.1996C14.4004 30.0405 14.4636 29.8879 14.5761 29.7753C14.6886 29.6628 14.8413 29.5996 15.0004 29.5996H24.0004C24.1595 29.5996 24.3121 29.6628 24.4247 29.7753C24.5372 29.8879 24.6004 30.0405 24.6004 30.1996C24.6004 30.3587 24.5372 30.5114 24.4247 30.6239C24.3121 30.7364 24.1595 30.7996 24.0004 30.7996Z" fill="#9EBBCE"/>
<path d="M33 33.2H21.6C21.4409 33.2 21.2883 33.1368 21.1757 33.0243C21.0632 32.9117 21 32.7591 21 32.6C21 32.4409 21.0632 32.2883 21.1757 32.1757C21.2883 32.0632 21.4409 32 21.6 32H33C33.1591 32 33.3117 32.0632 33.4243 32.1757C33.5368 32.2883 33.6 32.4409 33.6 32.6C33.6 32.7591 33.5368 32.9117 33.4243 33.0243C33.3117 33.1368 33.1591 33.2 33 33.2Z" fill="#9EBBCE"/>
<path d="M19.2004 33.2H15.0004C14.8413 33.2 14.6886 33.1368 14.5761 33.0243C14.4636 32.9117 14.4004 32.7591 14.4004 32.6C14.4004 32.4409 14.4636 32.2883 14.5761 32.1757C14.6886 32.0632 14.8413 32 15.0004 32H19.2004C19.3595 32 19.5121 32.0632 19.6247 32.1757C19.7372 32.2883 19.8004 32.4409 19.8004 32.6C19.8004 32.7591 19.7372 32.9117 19.6247 33.0243C19.5121 33.1368 19.3595 33.2 19.2004 33.2Z" fill="#9EBBCE"/>
<path d="M33.0004 35.5997H15.0004C14.8413 35.5997 14.6886 35.5364 14.5761 35.4239C14.4636 35.3114 14.4004 35.1588 14.4004 34.9997C14.4004 34.8405 14.4636 34.6879 14.5761 34.5754C14.6886 34.4629 14.8413 34.3997 15.0004 34.3997H33.0004C33.1595 34.3997 33.3121 34.4629 33.4247 34.5754C33.5372 34.6879 33.6004 34.8405 33.6004 34.9997C33.6004 35.1588 33.5372 35.3114 33.4247 35.4239C33.3121 35.5364 33.1595 35.5997 33.0004 35.5997Z" fill="#9EBBCE"/>
</g>
<defs>
<clipPath id="clip0_1_7249">
<rect width="48" height="40" fill="white"/>
</clipPath>
</defs>
</svg>
