<svg width="48" height="40" viewBox="0 0 48 40" fill="none" xmlns="http://www.w3.org/2000/svg">
<g clip-path="url(#clip0_1_7235)">
<path d="M48 1.57216V38.4287C48 39.3429 47.259 40.0839 46.3448 40.0839H1.65517C0.741 40.0839 0 39.3429 0 38.4287V1.57216C0 0.657992 0.741 -0.0830078 1.65517 -0.0830078H46.3448C47.259 -0.0830078 48 0.657992 48 1.57216Z" fill="#FFCB99"/>
<path d="M42.2422 6.63165V33.3683C42.2422 34.2695 41.549 35 40.6938 35H7.79057C6.93538 35 6.24219 34.2695 6.24219 33.3683V6.63165C6.24219 5.73047 6.93538 5 7.79057 5H40.6938C41.549 5 42.2422 5.73047 42.2422 6.63165Z" fill="#9CBCFF"/>
<path d="M36.6364 16.1723C38.5218 16.1723 40.0502 14.6439 40.0502 12.7585C40.0502 10.8731 38.5218 9.34473 36.6364 9.34473C34.7511 9.34473 33.2227 10.8731 33.2227 12.7585C33.2227 14.6439 34.7511 16.1723 36.6364 16.1723Z" fill="#FFE773"/>
<path d="M24.0621 21.2841C23.6317 21.1279 23.4103 20.653 23.5666 20.2237C23.7228 19.7934 24.1976 19.572 24.6269 19.7282C26.6861 20.4736 29.1868 17.6857 27.2659 15.2106C26.4672 14.1772 25.1679 13.961 24.7417 13.8896C22.267 13.4787 20.4442 14.9431 18.5214 16.2617C14.0471 19.3299 10.0164 20.1282 6 16.4489V14.0396C8.85217 17.5183 11.5758 17.2181 11.639 17.2465C14.1662 17.2465 16.8279 15.4248 16.9407 15.3472C19.2362 13.7639 21.6984 11.7067 25.0128 12.2572C26.5831 12.5179 27.781 13.1706 28.5755 14.1979C31.5285 18.0062 27.642 22.5867 24.0621 21.2841Z" fill="#CBE3FA"/>
<path d="M35.013 24.042C35.0087 23.585 35.3756 23.2109 35.8327 23.2065C36.3034 23.2019 36.5875 22.6604 36.6573 22.4521C36.8539 21.8661 36.4525 21.2803 36.2128 21.0524C35.434 20.3143 33.9335 20.7679 33.9182 20.7724C32.1422 21.3285 32.0569 23.6266 28.9499 24.3065C28.5032 24.4041 28.0623 24.1215 27.9646 23.6751C27.8669 23.2286 28.1497 22.7874 28.5962 22.6897C31.0787 22.1465 30.9401 19.9706 33.426 19.1922C33.6773 19.1143 35.9023 18.4779 37.3522 19.8518C39.3971 21.796 38.0241 24.8405 35.8486 24.8615C35.4061 24.8698 35.0177 24.5094 35.013 24.042Z" fill="#CBE3FA"/>
<path d="M42.2422 30.3403V33.3838C42.2422 34.2768 41.5493 35 40.6938 35H7.79057C6.93509 35 6.24219 34.2768 6.24219 33.3838V29.8423H12.5412C12.7377 29.8423 12.9051 29.6877 12.9254 29.4827C13.3484 25.2019 15.9126 24.0401 16.9009 22.3643C18.0244 20.4602 17.5067 17.8248 16.6725 15.551C16.5235 15.145 17.0161 14.8116 17.3083 15.1217C19.5496 17.5056 20.5328 20.9168 19.8786 24.2391C19.8399 24.4361 19.9464 24.6311 20.1273 24.6997C22.3803 25.5493 23.7748 27.4453 24.1861 29.9797C28.2884 31.7883 31.0631 30.2412 33.5461 29.7383C35.3277 29.3776 38.8696 29.2473 42.2422 30.3403Z" fill="#5C5C5C"/>
<path d="M16.0469 32.469C16.0252 32.679 15.8472 32.8373 15.6362 32.8373H11.2821C9.96797 32.8373 8.90276 33.9025 8.90276 35.2166H7.65517C6.741 35.2166 6 34.4756 6 33.5614V29.9346H12.7334C12.9434 29.9346 13.1224 29.7763 13.1441 29.5663C13.5963 25.1822 16.3374 23.9925 17.3938 22.2763C18.5948 20.3263 18.0414 17.6273 17.1497 15.2987C16.9903 14.8828 17.5169 14.5415 17.8293 14.859C20.2252 17.3004 21.2762 20.7939 20.5769 24.1963C20.0231 26.8396 16.5792 27.3912 16.0469 32.469Z" fill="#5C5C5C"/>
<path d="M27.8383 34.605C27.7412 34.9663 27.4135 35.2166 27.0393 35.2166H24.7402C24.7402 35.1155 25.6469 32.8067 25.183 30.0752C25.9568 30.402 26.7468 30.6384 27.5556 30.7844C27.9476 30.8553 28.2338 31.1947 28.2371 31.5931C28.2475 32.8788 28.0116 33.9602 27.8383 34.605Z" fill="#202020"/>
<path d="M38.6381 15.5249C36.4988 17.0747 33.4767 15.6881 33.2375 13.0816C33.0957 11.5359 33.9841 10.1796 35.2942 9.61882C35.6282 9.47585 35.9763 9.81113 35.8407 10.1482C35.0483 12.1174 36.2956 14.4397 38.4463 14.7845C38.8106 14.8428 38.9369 15.3085 38.6381 15.5249Z" fill="#FFF0A6"/>
</g>
<defs>
<clipPath id="clip0_1_7235">
<rect width="48" height="40" fill="white"/>
</clipPath>
</defs>
</svg>
