<svg width="50" height="42" viewBox="0 0 50 42" fill="none" xmlns="http://www.w3.org/2000/svg">
<g clip-path="url(#clip0_1_7270)">
<path d="M50 1.80422V40.1965C50 41.1487 49.2281 41.9206 48.2759 41.9206H1.72414C0.771875 41.9206 0 41.1487 0 40.1965V1.80422C0 0.851953 0.771875 0.0800781 1.72414 0.0800781H48.2759C49.2281 0.0800781 50 0.851953 50 1.80422Z" fill="#B3BBFF"/>
<g clip-path="url(#clip1_1_7270)">
<path d="M37.5631 37.8803H35.7686C35.4691 37.8803 35.2264 37.6375 35.2264 37.3381C35.2264 37.0386 35.4691 36.7959 35.7686 36.7959H37.5631C37.8626 36.7959 38.1053 37.0386 38.1053 37.3381C38.1053 37.6375 37.8626 37.8803 37.5631 37.8803ZM32.8971 37.8803H31.1026C30.8031 37.8803 30.5604 37.6375 30.5604 37.3381C30.5604 37.0386 30.8031 36.7959 31.1026 36.7959H32.8971C33.1966 36.7959 33.4393 37.0386 33.4393 37.3381C33.4393 37.6375 33.1966 37.8803 32.8971 37.8803ZM28.2312 37.8803H26.4365C26.1371 37.8803 25.8944 37.6375 25.8944 37.3381C25.8944 37.0386 26.1371 36.7959 26.4365 36.7959H28.2312C28.5307 36.7959 28.7734 37.0386 28.7734 37.3381C28.7734 37.6375 28.5307 37.8803 28.2312 37.8803ZM23.5653 37.8803H21.7707C21.4712 37.8803 21.2285 37.6375 21.2285 37.3381C21.2285 37.0386 21.4712 36.7959 21.7707 36.7959H23.5653C23.8647 36.7959 24.1074 37.0386 24.1074 37.3381C24.1074 37.6375 23.8647 37.8803 23.5653 37.8803ZM18.8993 37.8803H17.1047C16.8052 37.8803 16.5625 37.6375 16.5625 37.3381C16.5625 37.0386 16.8052 36.7959 17.1047 36.7959H18.8993C19.1987 36.7959 19.4414 37.0386 19.4414 37.3381C19.4414 37.6375 19.1987 37.8803 18.8993 37.8803ZM14.2333 37.8803H12.4387C12.1392 37.8803 11.8965 37.6375 11.8965 37.3381C11.8965 37.0386 12.1392 36.7959 12.4387 36.7959H14.2333C14.5328 36.7959 14.7755 37.0386 14.7755 37.3381C14.7755 37.6375 14.5328 37.8803 14.2333 37.8803Z" fill="#D1D1D1"/>
<path d="M8.66327 34.1053C8.36381 34.1053 8.12109 33.8626 8.12109 33.5631V31.7686C8.12109 31.4691 8.36381 31.2264 8.66327 31.2264C8.96273 31.2264 9.20545 31.4691 9.20545 31.7686V33.5631C9.20545 33.8626 8.96273 34.1053 8.66327 34.1053ZM8.66327 29.4393C8.36381 29.4393 8.12109 29.1966 8.12109 28.8971V27.1026C8.12109 26.8031 8.36381 26.5604 8.66327 26.5604C8.96273 26.5604 9.20545 26.8031 9.20545 27.1026V28.8971C9.20545 29.1966 8.96273 29.4393 8.66327 29.4393ZM8.66327 24.7734C8.36381 24.7734 8.12109 24.5307 8.12109 24.2312V22.4365C8.12109 22.1371 8.36381 21.8944 8.66327 21.8944C8.96273 21.8944 9.20545 22.1371 9.20545 22.4365V24.2312C9.20545 24.5307 8.96273 24.7734 8.66327 24.7734ZM8.66327 20.1074C8.36381 20.1074 8.12109 19.8647 8.12109 19.5652V17.7706C8.12109 17.4711 8.36381 17.2284 8.66327 17.2284C8.96273 17.2284 9.20545 17.4711 9.20545 17.7706V19.5652C9.20545 19.8647 8.96273 20.1074 8.66327 20.1074ZM8.66327 15.4415C8.36381 15.4415 8.12109 15.1988 8.12109 14.8993V13.1047C8.12109 12.8052 8.36381 12.5625 8.66327 12.5625C8.96273 12.5625 9.20545 12.8052 9.20545 13.1047V14.8993C9.20545 15.1988 8.96273 15.4415 8.66327 15.4415ZM8.66327 10.7755C8.36381 10.7755 8.12109 10.5328 8.12109 10.2333V8.43866C8.12109 8.1392 8.36381 7.89648 8.66327 7.89648C8.96273 7.89648 9.20545 8.1392 9.20545 8.43866V10.2333C9.20545 10.5328 8.96273 10.7755 8.66327 10.7755Z" fill="#D1D1D1"/>
<path d="M37.5631 5.20545H35.7685C35.469 5.20545 35.2263 4.96273 35.2263 4.66327C35.2263 4.36381 35.469 4.12109 35.7685 4.12109H37.5631C37.8626 4.12109 38.1053 4.36381 38.1053 4.66327C38.1053 4.96273 37.8626 5.20545 37.5631 5.20545ZM32.8971 5.20545H31.1026C30.8031 5.20545 30.5604 4.96273 30.5604 4.66327C30.5604 4.36381 30.8031 4.12109 31.1026 4.12109H32.8971C33.1966 4.12109 33.4393 4.36381 33.4393 4.66327C33.4393 4.96273 33.1966 5.20545 32.8971 5.20545ZM28.2311 5.20545H26.4365C26.1371 5.20545 25.8944 4.96273 25.8944 4.66327C25.8944 4.36381 26.1371 4.12109 26.4365 4.12109H28.2311C28.5306 4.12109 28.7733 4.36381 28.7733 4.66327C28.7733 4.96273 28.5306 5.20545 28.2311 5.20545ZM23.5653 5.20545H21.7706C21.4711 5.20545 21.2284 4.96273 21.2284 4.66327C21.2284 4.36381 21.4711 4.12109 21.7706 4.12109H23.5653C23.8647 4.12109 24.1074 4.36381 24.1074 4.66327C24.1074 4.96273 23.8647 5.20545 23.5653 5.20545ZM18.8993 5.20545H17.1047C16.8052 5.20545 16.5625 4.96273 16.5625 4.66327C16.5625 4.36381 16.8052 4.12109 17.1047 4.12109H18.8993C19.1987 4.12109 19.4414 4.36381 19.4414 4.66327C19.4414 4.96273 19.1987 5.20545 18.8993 5.20545ZM14.2333 5.20545H12.4387C12.1392 5.20545 11.8965 4.96273 11.8965 4.66327C11.8965 4.36381 12.1392 4.12109 12.4387 4.12109H14.2333C14.5327 4.12109 14.7754 4.36381 14.7754 4.66327C14.7754 4.96273 14.5327 5.20545 14.2333 5.20545Z" fill="#D1D1D1"/>
<path d="M41.3371 34.1053C41.0376 34.1053 40.7949 33.8626 40.7949 33.5631V31.7685C40.7949 31.469 41.0376 31.2263 41.3371 31.2263C41.6366 31.2263 41.8793 31.469 41.8793 31.7685V33.5631C41.8793 33.8626 41.6366 34.1053 41.3371 34.1053ZM41.3371 29.4393C41.0376 29.4393 40.7949 29.1966 40.7949 28.8971V27.1025C40.7949 26.803 41.0376 26.5603 41.3371 26.5603C41.6366 26.5603 41.8793 26.803 41.8793 27.1025V28.8971C41.8793 29.1966 41.6366 29.4393 41.3371 29.4393ZM41.3371 24.7733C41.0376 24.7733 40.7949 24.5306 40.7949 24.2311V22.4365C40.7949 22.1371 41.0376 21.8944 41.3371 21.8944C41.6366 21.8944 41.8793 22.1371 41.8793 22.4365V24.2311C41.8793 24.5306 41.6366 24.7733 41.3371 24.7733ZM41.3371 20.1074C41.0376 20.1074 40.7949 19.8647 40.7949 19.5652V17.7705C40.7949 17.4711 41.0376 17.2284 41.3371 17.2284C41.6366 17.2284 41.8793 17.4711 41.8793 17.7705V19.5652C41.8793 19.8647 41.6366 20.1074 41.3371 20.1074ZM41.3371 15.4414C41.0376 15.4414 40.7949 15.1987 40.7949 14.8993V13.1047C40.7949 12.8052 41.0376 12.5625 41.3371 12.5625C41.6366 12.5625 41.8793 12.8052 41.8793 13.1047V14.8993C41.8793 15.1987 41.6366 15.4414 41.3371 15.4414ZM41.3371 10.7754C41.0376 10.7754 40.7949 10.5327 40.7949 10.2333V8.43866C40.7949 8.1392 41.0376 7.89648 41.3371 7.89648C41.6366 7.89648 41.8793 8.1392 41.8793 8.43866V10.2333C41.8793 10.5327 41.6366 10.7754 41.3371 10.7754Z" fill="#D1D1D1"/>
<path d="M41.2698 6.43406C42.2181 6.43406 42.9868 5.66532 42.9868 4.71703C42.9868 3.76874 42.2181 3 41.2698 3C40.3215 3 39.5527 3.76874 39.5527 4.71703C39.5527 5.66532 40.3215 6.43406 41.2698 6.43406Z" fill="#D1D1D1"/>
<path d="M8.73266 6.43406C9.68095 6.43406 10.4497 5.66532 10.4497 4.71703C10.4497 3.76874 9.68095 3 8.73266 3C7.78437 3 7.01562 3.76874 7.01562 4.71703C7.01562 5.66532 7.78437 6.43406 8.73266 6.43406Z" fill="#D1D1D1"/>
<path d="M41.2698 39.0005C42.2181 39.0005 42.9868 38.2317 42.9868 37.2834C42.9868 36.3351 42.2181 35.5664 41.2698 35.5664C40.3215 35.5664 39.5527 36.3351 39.5527 37.2834C39.5527 38.2317 40.3215 39.0005 41.2698 39.0005Z" fill="#D1D1D1"/>
<path d="M8.73266 39.0005C9.68095 39.0005 10.4497 38.2317 10.4497 37.2834C10.4497 36.3351 9.68095 35.5664 8.73266 35.5664C7.78437 35.5664 7.01562 36.3351 7.01562 37.2834C7.01562 38.2317 7.78437 39.0005 8.73266 39.0005Z" fill="#D1D1D1"/>
<path d="M42.9863 4.7173C42.9863 5.66574 42.2172 6.43412 41.2695 6.43412C40.509 6.43412 39.8642 5.94038 39.6387 5.25512C39.8874 5.39609 40.175 5.47632 40.4808 5.47632C41.4293 5.47632 42.1976 4.70717 42.1976 3.7595C42.1976 3.57155 42.1673 3.39085 42.1109 3.22168C42.6336 3.51516 42.9863 4.07464 42.9863 4.7173Z" fill="#D1D1D1"/>
<path d="M10.4493 4.7173C10.4493 5.66574 9.68013 6.43412 8.73169 6.43412C7.97196 6.43412 7.32642 5.94038 7.10156 5.25512C7.35026 5.39609 7.6372 5.47632 7.94299 5.47632C8.89144 5.47632 9.66059 4.70717 9.66059 3.7595C9.66059 3.57155 9.63021 3.39085 9.57382 3.22168C10.0965 3.51516 10.4493 4.07464 10.4493 4.7173Z" fill="#D1D1D1"/>
<path d="M42.9863 37.2837C42.9863 38.2321 42.2172 39.0005 41.2695 39.0005C40.509 39.0005 39.8642 38.5068 39.6387 37.8215C39.8874 37.9625 40.175 38.0427 40.4808 38.0427C41.4293 38.0427 42.1976 37.2743 42.1976 36.3259C42.1976 36.138 42.1673 35.9573 42.1109 35.7881C42.6336 36.0816 42.9863 36.641 42.9863 37.2837Z" fill="#D1D1D1"/>
<path d="M10.4493 37.2837C10.4493 38.2321 9.68013 39.0005 8.73169 39.0005C7.97196 39.0005 7.32642 38.5068 7.10156 37.8215C7.35026 37.9625 7.6372 38.0427 7.94299 38.0427C8.89144 38.0427 9.66059 37.2743 9.66059 36.3259C9.66059 36.138 9.63021 35.9573 9.57382 35.7881C10.0965 36.0816 10.4493 36.641 10.4493 37.2837Z" fill="#D1D1D1"/>
<path d="M37.386 34.1674H12.6174C11.8535 34.1674 11.2344 33.5483 11.2344 32.7845V9.21598C11.2344 8.45218 11.8535 7.83301 12.6174 7.83301H37.386C38.1498 7.83301 38.769 8.45218 38.769 9.21598V32.7845C38.769 33.5483 38.1498 34.1674 37.386 34.1674Z" fill="#DEECF1"/>
<path d="M38.7699 9.21549V32.7842C38.7699 33.5478 38.1503 34.1667 37.3867 34.1667H35.3633C36.1269 34.1667 36.7458 33.5479 36.7458 32.7842V9.21549C36.7458 8.4519 36.1269 7.83301 35.3633 7.83301H37.3867C38.1503 7.83301 38.7699 8.45183 38.7699 9.21549Z" fill="#CBE5E8"/>
<path d="M22.873 23.2233L29.4452 19.4689C30.2921 18.9851 31.3368 19.0074 32.1622 19.5271L38.7693 23.6867V32.7846C38.7693 33.5484 38.1501 34.1676 37.3863 34.1676H22.873V23.2233Z" fill="#A6E7F0"/>
<path d="M38.7699 23.6864V32.7843C38.7699 33.5479 38.1503 34.1668 37.3867 34.1668H35.3633C36.1269 34.1668 36.7458 33.548 36.7458 32.7843V22.4121L38.7699 23.6864Z" fill="#6BD9E7"/>
<path d="M11.2344 21.0006L17.0794 17.7742C18.0008 17.2656 19.1362 17.3526 19.9693 17.9956L31.39 26.81C32.1956 27.4317 32.6674 28.3919 32.6674 29.4094V34.1678H12.6174C11.8535 34.1678 11.2344 33.5486 11.2344 32.7848V21.0006H11.2344Z" fill="#03BED7"/>
<path d="M32.6682 27.7947V34.1667H30.0367V30.3164C30.0367 29.2548 29.5445 28.2532 28.7041 27.6045L17.3385 18.8331C16.9712 18.5496 16.546 18.3743 16.1055 18.311L17.0802 17.773C18.0016 17.2647 19.1364 17.3516 19.9701 17.9948L32.6682 27.7947Z" fill="#07B2CD"/>
<path d="M32.4128 15.9585C33.9105 15.9585 35.1245 14.7444 35.1245 13.2468C35.1245 11.7492 33.9105 10.5352 32.4128 10.5352C30.9152 10.5352 29.7012 11.7492 29.7012 13.2468C29.7012 14.7444 30.9152 15.9585 32.4128 15.9585Z" fill="#FEA613"/>
<path d="M35.1256 13.2466C35.1256 14.7441 33.9116 15.9581 32.4141 15.9581C31.1902 15.9581 30.1552 15.1465 29.8184 14.0323C30.2833 14.4073 30.8754 14.6313 31.5186 14.6313C33.0161 14.6313 34.2301 13.4173 34.2301 11.9197C34.2301 11.6469 34.1898 11.3833 34.115 11.1348C34.7317 11.6317 35.1256 12.3931 35.1256 13.2466Z" fill="#FB8801"/>
</g>
</g>
<defs>
<clipPath id="clip0_1_7270">
<rect width="50" height="42" fill="white"/>
</clipPath>
<clipPath id="clip1_1_7270">
<rect width="36" height="36" fill="white" transform="translate(7 3)"/>
</clipPath>
</defs>
</svg>
