<svg width="17" height="18" viewBox="0 0 17 18" fill="none" xmlns="http://www.w3.org/2000/svg">
<path d="M16.4086 9.77618C11.9738 10.2197 10.1999 13.324 9.53471 17.0935C9.31298 16.2065 9.09125 15.3196 8.64778 14.4327C7.76083 12.437 6.43041 10.8849 4.21304 10.2197C3.76957 9.99792 3.10436 9.99792 2.66089 9.77618C7.09563 9.33271 8.64777 6.22839 9.53471 2.45886C9.75645 2.90234 9.75646 3.34581 9.75646 3.78928C10.1999 5.56318 11.0869 7.33708 12.6391 8.44576C13.7477 9.33271 14.8564 9.77618 16.1868 9.77618C16.1868 9.77618 16.1868 9.77618 16.4086 9.77618Z" fill="white"/>
<path d="M3.99124 6.22861C2.66082 6.45035 2.21736 7.33729 1.99562 8.22424C1.99562 8.0025 1.77387 7.78077 1.77387 7.55903C1.55213 6.89382 1.10868 6.45035 0.443467 6.45035C0.22173 6.45035 0.221737 6.45035 0 6.45035C1.33042 6.22861 1.77388 5.5634 1.99562 4.45471C1.99562 4.67645 1.99562 4.67645 1.99562 4.89819C2.21736 5.34166 2.43908 5.78514 2.88255 6.22861C3.32603 6.00688 3.54776 6.00688 3.99124 6.22861Z" fill="white"/>
<path d="M6.87391 3.12406C5.76522 3.3458 5.32175 4.01101 5.32175 4.89795C5.32175 4.67622 5.1 4.45448 5.1 4.23274C4.87827 3.78927 4.65653 3.34579 3.99132 3.34579C3.76958 3.34579 3.76959 3.34579 3.54785 3.34579C4.65654 3.12406 4.87827 2.45885 5.1 1.5719C5.1 1.79364 5.1 1.79364 5.1 1.79364C5.32174 2.23712 5.32175 2.68059 5.76522 2.90233C6.20869 3.12406 6.43043 3.12406 6.87391 3.12406Z" fill="white"/>
<path d="M2.66094 2.23703C1.99573 2.23703 1.77397 2.68051 1.77397 3.12399C1.77397 2.90225 1.77399 2.90225 1.55225 2.68051C1.33051 2.45877 1.33051 2.23704 0.887034 2.0153H0.665283C1.33049 2.0153 1.55225 1.57183 1.55225 0.906616V1.12835C1.55225 1.35009 1.77398 1.57183 1.99572 1.79357C2.21746 2.23704 2.4392 2.23703 2.66094 2.23703C2.4392 2.23703 2.4392 2.23703 2.66094 2.23703Z" fill="white"/>
</svg>
