<svg width="25" height="24" viewBox="0 0 25 24" fill="none" xmlns="http://www.w3.org/2000/svg">
<path d="M3.32251 5.6998C3.32251 5.46111 3.41733 5.23219 3.58611 5.06341C3.7549 4.89463 3.98381 4.7998 4.22251 4.7998H21.6225C21.8612 4.7998 22.0901 4.89463 22.2589 5.06341C22.4277 5.23219 22.5225 5.46111 22.5225 5.6998C22.5225 5.9385 22.4277 6.16742 22.2589 6.3362C22.0901 6.50498 21.8612 6.5998 21.6225 6.5998H4.22251C3.98381 6.5998 3.7549 6.50498 3.58611 6.3362C3.41733 6.16742 3.32251 5.9385 3.32251 5.6998ZM3.32251 11.6998C3.32251 11.4611 3.41733 11.2322 3.58611 11.0634C3.7549 10.8946 3.98381 10.7998 4.22251 10.7998H21.6225C21.8612 10.7998 22.0901 10.8946 22.2589 11.0634C22.4277 11.2322 22.5225 11.4611 22.5225 11.6998C22.5225 11.9385 22.4277 12.1674 22.2589 12.3362C22.0901 12.505 21.8612 12.5998 21.6225 12.5998H4.22251C3.98381 12.5998 3.7549 12.505 3.58611 12.3362C3.41733 12.1674 3.32251 11.9385 3.32251 11.6998ZM4.22251 16.7998C3.98381 16.7998 3.7549 16.8946 3.58611 17.0634C3.41733 17.2322 3.32251 17.4611 3.32251 17.6998C3.32251 17.9385 3.41733 18.1674 3.58611 18.3362C3.7549 18.505 3.98381 18.5998 4.22251 18.5998H21.6225C21.8612 18.5998 22.0901 18.505 22.2589 18.3362C22.4277 18.1674 22.5225 17.9385 22.5225 17.6998C22.5225 17.4611 22.4277 17.2322 22.2589 17.0634C22.0901 16.8946 21.8612 16.7998 21.6225 16.7998H4.22251Z" fill="white"/>
</svg>
