<svg width="25" height="24" viewBox="0 0 25 24" fill="none" xmlns="http://www.w3.org/2000/svg">
<g clip-path="url(#clip0_1_7751)">
<path d="M21.1832 0.000244141H3.3168C1.62573 0.000244141 0.25 1.37603 0.25 3.06709V20.9334C0.25 22.6245 1.62573 24.0002 3.3168 24.0002H21.1832C22.8743 24.0002 24.25 22.6245 24.25 20.9334V3.06709C24.25 1.37603 22.8743 0.000244141 21.1832 0.000244141ZM22.8363 20.9334C22.8363 21.845 22.0947 22.5866 21.1832 22.5866H3.3168C2.40522 22.5866 1.66361 21.845 1.66361 20.9334V18.355L6.31619 14.3964C6.48597 14.2519 6.73366 14.2505 6.90503 14.3928L9.81944 16.8129C10.1005 17.0462 10.513 17.0271 10.7712 16.7686L17.696 9.83321C17.8211 9.70782 17.9671 9.69563 18.0432 9.69953C18.1192 9.70342 18.2633 9.73051 18.375 9.86809L22.8364 15.3614L22.8363 20.9334ZM22.8363 13.1189L19.4723 8.97676C19.1387 8.56595 18.6442 8.31479 18.1157 8.28765C17.5875 8.26093 17.0695 8.45978 16.6956 8.83431L10.2265 15.3134L7.80822 13.3053C7.10702 12.7231 6.09433 12.7291 5.40011 13.3198L1.66361 16.4989V3.06709C1.66361 2.15551 2.40522 1.4139 3.3168 1.4139H21.1832C22.0948 1.4139 22.8363 2.15551 22.8363 3.06709V13.1189Z" fill="#3C3C3C"/>
<path d="M7.80503 2.95312C5.92558 2.95312 4.39661 4.48219 4.39661 6.36155C4.39661 8.24095 5.92562 9.76997 7.80503 9.76997C9.68443 9.76997 11.2134 8.24095 11.2134 6.36155C11.2134 4.48214 9.68448 2.95312 7.80503 2.95312ZM7.80503 8.35636C6.70506 8.35636 5.81022 7.46147 5.81022 6.36155C5.81022 5.26158 6.70506 4.36673 7.80503 4.36673C8.905 4.36673 9.79984 5.26162 9.79984 6.36155C9.79984 7.46147 8.905 8.35636 7.80503 8.35636Z" fill="#3C3C3C"/>
</g>
<defs>
<clipPath id="clip0_1_7751">
<rect width="24" height="24" fill="white" transform="translate(0.25 0.000244141)"/>
</clipPath>
</defs>
</svg>
