<svg width="25" height="24" viewBox="0 0 25 24" fill="none" xmlns="http://www.w3.org/2000/svg">
<g clip-path="url(#clip0_1_7747)">
<path fill-rule="evenodd" clip-rule="evenodd" d="M17.2501 10.5002C17.2501 12.2241 16.5652 13.8774 15.3462 15.0964C14.1273 16.3154 12.474 17.0002 10.7501 17.0002C9.02614 17.0002 7.37284 16.3154 6.15386 15.0964C4.93487 13.8774 4.25005 12.2241 4.25005 10.5002C4.25005 8.77633 4.93487 7.12303 6.15386 5.90404C7.37284 4.68505 9.02614 4.00023 10.7501 4.00023C12.474 4.00023 14.1273 4.68505 15.3462 5.90404C16.5652 7.12303 17.2501 8.77633 17.2501 10.5002ZM16.0121 17.1762C14.3096 18.5181 12.1589 19.1588 9.99972 18.9673C7.84054 18.7759 5.83608 17.7668 4.39629 16.1464C2.9565 14.526 2.19018 12.4168 2.25406 10.25C2.31795 8.08334 3.2072 6.0229 4.73996 4.49015C6.27272 2.95739 8.33316 2.06813 10.4999 2.00425C12.6666 1.94036 14.7758 2.70668 16.3962 4.14647C18.0166 5.58626 19.0257 7.59073 19.2172 9.7499C19.4086 11.9091 18.7679 14.0598 17.4261 15.7622L21.9571 20.2922C22.1447 20.4797 22.2502 20.7341 22.2503 20.9994C22.2503 21.2647 22.1451 21.5191 21.9576 21.7067C21.77 21.8944 21.5157 21.9998 21.2504 21.9999C20.9851 22 20.7307 21.8947 20.5431 21.7072L16.0121 17.1762Z" fill="white"/>
</g>
<defs>
<clipPath id="clip0_1_7747">
<rect width="24" height="24" fill="white" transform="translate(0.25 0.000244141)"/>
</clipPath>
</defs>
</svg>
